<?xml version="1.0" encoding="UTF-8"?>
<svg xmlns="http://www.w3.org/2000/svg" xmlns:xlink="http://www.w3.org/1999/xlink" width="2700" height="1518.75" viewBox="0 0 2700 1518.75">
<defs>
<radialGradient id="radial-pattern-0" gradientUnits="userSpaceOnUse" cx="0" cy="0" fx="0" fy="0" r="1403.27" gradientTransform="matrix(1, 0, 0, 1, 1350, 759.375)">
<stop offset="0" stop-color="rgb(100%, 100%, 100%)" stop-opacity="0.5"/>
<stop offset="0.0625" stop-color="rgb(99.880981%, 99.960327%, 99.992371%)" stop-opacity="0.5"/>
<stop offset="0.0742188" stop-color="rgb(99.607849%, 99.801636%, 99.873352%)" stop-opacity="0.5"/>
<stop offset="0.101562" stop-color="rgb(99.298096%, 99.501038%, 99.569702%)" stop-opacity="0.5"/>
<stop offset="0.113281" stop-color="rgb(98.968506%, 99.267578%, 99.369812%)" stop-opacity="0.5"/>
<stop offset="0.140625" stop-color="rgb(98.664856%, 99.0448%, 99.176025%)" stop-opacity="0.5"/>
<stop offset="0.152344" stop-color="rgb(98.454285%, 98.754883%, 98.872375%)" stop-opacity="0.5"/>
<stop offset="0.175781" stop-color="rgb(98.23761%, 98.416138%, 98.547363%)" stop-opacity="0.5"/>
<stop offset="0.199219" stop-color="rgb(98.002625%, 98.139954%, 98.251343%)" stop-opacity="0.5"/>
<stop offset="0.222656" stop-color="rgb(97.720337%, 97.853088%, 97.955322%)" stop-opacity="0.5"/>
<stop offset="0.246094" stop-color="rgb(97.463989%, 97.598267%, 97.673035%)" stop-opacity="0.5"/>
<stop offset="0.257812" stop-color="rgb(97.291565%, 97.540283%, 97.593689%)" stop-opacity="0.5"/>
<stop offset="0.265625" stop-color="rgb(97.090149%, 97.402954%, 97.549438%)" stop-opacity="0.5"/>
<stop offset="0.273438" stop-color="rgb(96.859741%, 97.137451%, 97.328186%)" stop-opacity="0.5"/>
<stop offset="0.292969" stop-color="rgb(96.557617%, 96.917725%, 97.067261%)" stop-opacity="0.5"/>
<stop offset="0.3125" stop-color="rgb(96.357727%, 96.777344%, 96.954346%)" stop-opacity="0.5"/>
<stop offset="0.320312" stop-color="rgb(96.147156%, 96.516418%, 96.685791%)" stop-opacity="0.5"/>
<stop offset="0.359375" stop-color="rgb(95.941162%, 96.252441%, 96.400452%)" stop-opacity="0.5"/>
<stop offset="0.367188" stop-color="rgb(95.909119%, 96.073914%, 96.302795%)" stop-opacity="0.5"/>
<stop offset="0.375" stop-color="rgb(95.819092%, 95.854187%, 96.136475%)" stop-opacity="0.5"/>
<stop offset="0.382812" stop-color="rgb(95.610046%, 95.576477%, 95.845032%)" stop-opacity="0.5"/>
<stop offset="0.398438" stop-color="rgb(95.40863%, 95.393372%, 95.594788%)" stop-opacity="0.5"/>
<stop offset="0.414062" stop-color="rgb(95.231628%, 95.330811%, 95.413208%)" stop-opacity="0.5"/>
<stop offset="0.421875" stop-color="rgb(95.030212%, 95.185852%, 95.257568%)" stop-opacity="0.5"/>
<stop offset="0.429688" stop-color="rgb(94.824219%, 94.952393%, 95.153809%)" stop-opacity="0.5"/>
<stop offset="0.4375" stop-color="rgb(94.616699%, 94.699097%, 94.981384%)" stop-opacity="0.5"/>
<stop offset="0.445312" stop-color="rgb(94.392395%, 94.418335%, 94.691467%)" stop-opacity="0.5"/>
<stop offset="0.460938" stop-color="rgb(94.190979%, 94.239807%, 94.445801%)" stop-opacity="0.5"/>
<stop offset="0.476562" stop-color="rgb(94.012451%, 94.178772%, 94.265747%)" stop-opacity="0.5"/>
<stop offset="0.484375" stop-color="rgb(93.812561%, 94.035339%, 94.111633%)" stop-opacity="0.5"/>
<stop offset="0.492188" stop-color="rgb(93.609619%, 93.80188%, 94.012451%)" stop-opacity="0.5"/>
<stop offset="0.5" stop-color="rgb(93.408203%, 93.629456%, 93.876648%)" stop-opacity="0.5"/>
<stop offset="0.507812" stop-color="rgb(93.196106%, 93.510437%, 93.659973%)" stop-opacity="0.5"/>
<stop offset="0.519531" stop-color="rgb(92.892456%, 93.229675%, 93.457031%)" stop-opacity="0.5"/>
<stop offset="0.546875" stop-color="rgb(92.681885%, 92.883301%, 93.199158%)" stop-opacity="0.5"/>
<stop offset="0.558594" stop-color="rgb(92.573547%, 92.654419%, 92.84668%)" stop-opacity="0.5"/>
<stop offset="0.570312" stop-color="rgb(92.366028%, 92.350769%, 92.49115%)" stop-opacity="0.5"/>
<stop offset="0.59375" stop-color="rgb(92.114258%, 92.086792%, 92.295837%)" stop-opacity="0.5"/>
<stop offset="0.605469" stop-color="rgb(91.918945%, 92.015076%, 92.202759%)" stop-opacity="0.5"/>
<stop offset="0.617188" stop-color="rgb(91.667175%, 91.758728%, 91.931152%)" stop-opacity="0.5"/>
<stop offset="0.640625" stop-color="rgb(91.377258%, 91.481018%, 91.654968%)" stop-opacity="0.5"/>
<stop offset="0.648438" stop-color="rgb(91.181946%, 91.40625%, 91.468811%)" stop-opacity="0.5"/>
<stop offset="0.65625" stop-color="rgb(90.985107%, 91.262817%, 91.325378%)" stop-opacity="0.5"/>
<stop offset="0.664062" stop-color="rgb(90.771484%, 91.011047%, 91.098022%)" stop-opacity="0.5"/>
<stop offset="0.683594" stop-color="rgb(90.466309%, 90.640259%, 90.786743%)" stop-opacity="0.5"/>
<stop offset="0.703125" stop-color="rgb(90.263367%, 90.388489%, 90.46936%)" stop-opacity="0.5"/>
<stop offset="0.71875" stop-color="rgb(90.060425%, 90.139771%, 90.202332%)" stop-opacity="0.5"/>
<stop offset="0.734375" stop-color="rgb(89.770508%, 89.871216%, 90.022278%)" stop-opacity="0.5"/>
<stop offset="0.742188" stop-color="rgb(89.564514%, 89.712524%, 89.794922%)" stop-opacity="0.5"/>
<stop offset="0.757812" stop-color="rgb(89.4104%, 89.482117%, 89.613342%)" stop-opacity="0.5"/>
<stop offset="0.769531" stop-color="rgb(89.212036%, 89.320374%, 89.390564%)" stop-opacity="0.5"/>
<stop offset="0.796875" stop-color="rgb(88.916016%, 89.099121%, 89.144897%)" stop-opacity="0.5"/>
<stop offset="0.808594" stop-color="rgb(88.619995%, 88.749695%, 89.015198%)" stop-opacity="0.5"/>
<stop offset="0.820312" stop-color="rgb(88.362122%, 88.438416%, 88.777161%)" stop-opacity="0.5"/>
<stop offset="0.839844" stop-color="rgb(88.061523%, 88.076782%, 88.473511%)" stop-opacity="0.5"/>
<stop offset="0.859375" stop-color="rgb(87.768555%, 87.808228%, 88.252258%)" stop-opacity="0.5"/>
<stop offset="0.867188" stop-color="rgb(87.576294%, 87.742615%, 88.070679%)" stop-opacity="0.5"/>
<stop offset="0.875" stop-color="rgb(87.472534%, 87.620544%, 87.852478%)" stop-opacity="0.5"/>
<stop offset="0.882812" stop-color="rgb(87.416077%, 87.417603%, 87.593079%)" stop-opacity="0.5"/>
<stop offset="0.894531" stop-color="rgb(87.214661%, 87.129211%, 87.269592%)" stop-opacity="0.5"/>
<stop offset="0.917969" stop-color="rgb(86.869812%, 86.846924%, 87.007141%)" stop-opacity="0.5"/>
<stop offset="0.9375" stop-color="rgb(86.579895%, 86.628723%, 86.895752%)" stop-opacity="0.5"/>
<stop offset="0.945312" stop-color="rgb(86.375427%, 86.351013%, 86.753845%)" stop-opacity="0.5"/>
<stop offset="0.957031" stop-color="rgb(86.172485%, 86.019897%, 86.459351%)" stop-opacity="0.5"/>
<stop offset="0.976562" stop-color="rgb(85.926819%, 85.766602%, 86.203003%)" stop-opacity="0.5"/>
<stop offset="0.988281" stop-color="rgb(85.632324%, 85.501099%, 85.945129%)" stop-opacity="0.5"/>
<stop offset="1" stop-color="rgb(85.482788%, 85.322571%, 85.752869%)" stop-opacity="0.5"/>
</radialGradient>
<clipPath id="clip-0">
<path clip-rule="nonzero" d="M 0 964 L 2700 964 L 2700 1518.75 L 0 1518.75 Z M 0 964 "/>
</clipPath>
<clipPath id="clip-1">
<path clip-rule="nonzero" d="M 0 960 L 2700 960 L 2700 1518.75 L 0 1518.75 Z M 0 960 "/>
</clipPath>
<clipPath id="clip-2">
<path clip-rule="nonzero" d="M 0 980 L 2700 980 L 2700 1518.75 L 0 1518.75 Z M 0 980 "/>
</clipPath>
<clipPath id="clip-3">
<path clip-rule="nonzero" d="M 0 978 L 2700 978 L 2700 1518.75 L 0 1518.75 Z M 0 978 "/>
</clipPath>
<clipPath id="clip-4">
<path clip-rule="nonzero" d="M 0 976 L 2700 976 L 2700 1518.75 L 0 1518.75 Z M 0 976 "/>
</clipPath>
<clipPath id="clip-5">
<path clip-rule="nonzero" d="M 0 973 L 2700 973 L 2700 1518.75 L 0 1518.75 Z M 0 973 "/>
</clipPath>
<clipPath id="clip-6">
<path clip-rule="nonzero" d="M 0 971 L 2700 971 L 2700 1518.75 L 0 1518.75 Z M 0 971 "/>
</clipPath>
<clipPath id="clip-7">
<path clip-rule="nonzero" d="M 0 969 L 2700 969 L 2700 1518.75 L 0 1518.75 Z M 0 969 "/>
</clipPath>
<clipPath id="clip-8">
<path clip-rule="nonzero" d="M 0 966 L 2700 966 L 2700 1518.75 L 0 1518.75 Z M 0 966 "/>
</clipPath>
<clipPath id="clip-9">
<path clip-rule="nonzero" d="M 0 964 L 2700 964 L 2700 1518.75 L 0 1518.75 Z M 0 964 "/>
</clipPath>
</defs>
<path fill-rule="nonzero" fill="url(#radial-pattern-0)" d="M 0 0 L 0 1518.75 L 2700 1518.75 L 2700 0 Z M 0 0 "/>
<path fill="none" stroke-width="7.03125" stroke-linecap="round" stroke-linejoin="round" stroke="rgb(10.545349%, 9.913635%, 9.561157%)" stroke-opacity="0.5" stroke-dasharray="0 168.75" stroke-miterlimit="10" d="M -3823.984375 2879.804688 C -2032.617188 2493.203125 -155.234375 2938.984375 1528.554688 3662.382812 C 3212.34375 4385.78125 4765.507812 5380.585938 6419.570312 6169.609375 C 8365.898438 7098.085938 10471.289062 7741.640625 12625.78125 7834.921875 C 14780.195312 7928.242188 16988.085938 7447.695312 18799.492188 6277.617188 C 19717.1875 5684.804688 20534.6875 4919.101562 21540.898438 4493.515625 C 23847.109375 3517.890625 26565.703125 4535.195312 28972.617188 3844.492188 " transform="matrix(0.1, 0, 0, -0.1, 0, 1518.75)"/>
<path fill="none" stroke-width="9.90767" stroke-linecap="round" stroke-linejoin="round" stroke="rgb(10.545349%, 9.913635%, 9.561157%)" stroke-opacity="0.5" stroke-dasharray="0 168.75" stroke-miterlimit="10" d="M 29011.992188 3960.78125 C 26606.40625 4628.203125 23908.90625 3616.914062 21603.90625 4511.71875 C 20598.710938 4902.304688 19773.515625 5618.242188 18851.796875 6174.023438 C 18322.382812 6493.164062 17760.703125 6758.242188 17177.109375 6972.773438 C 15754.6875 7495.703125 14205.390625 7718.710938 12682.5 7670.546875 C 12069.492188 7651.09375 11460.507812 7589.492188 10857.890625 7491.015625 C 9651.601562 7293.945312 8470.234375 6949.023438 7335.039062 6508.046875 C 7050.429688 6397.617188 6768.4375 6279.726562 6489.453125 6155.195312 C 4835.3125 5415.585938 3273.554688 4443.789062 1593.359375 3713.007812 C -83.476562 2983.984375 -1939.335938 2503.59375 -3698.476562 2816.484375 " transform="matrix(0.1, 0, 0, -0.1, 0, 1518.75)"/>
<path fill="none" stroke-width="12.7841" stroke-linecap="round" stroke-linejoin="round" stroke="rgb(10.545349%, 9.913635%, 9.561157%)" stroke-opacity="0.5" stroke-dasharray="0 168.75" stroke-miterlimit="10" d="M 29051.484375 4077.1875 C 26647.1875 4721.289062 23970.78125 3715.898438 21666.914062 4530 C 20662.695312 4885.507812 19829.6875 5551.640625 18904.101562 6070.46875 C 18372.1875 6368.320312 17809.296875 6616.40625 17225.3125 6818.984375 C 15801.484375 7312.65625 14257.304688 7536.328125 12739.21875 7506.09375 C 12128.28125 7493.867188 11521.40625 7442.1875 10920.703125 7355.3125 C 9717.8125 7181.601562 8538.671875 6867.148438 7405.117188 6466.015625 C 7120.742188 6365.625 6838.671875 6256.914062 6559.375 6140.742188 C 4905.117188 5450.585938 3334.726562 4501.796875 1658.203125 3763.59375 C -11.679688 3029.101562 -1846.054688 2513.984375 -3572.96875 2753.203125 " transform="matrix(0.1, 0, 0, -0.1, 0, 1518.75)"/>
<path fill="none" stroke-width="15.6605" stroke-linecap="round" stroke-linejoin="round" stroke="rgb(10.545349%, 9.913635%, 9.561157%)" stroke-opacity="0.5" stroke-dasharray="0 168.75" stroke-miterlimit="10" d="M 29090.898438 4193.59375 C 26688.007812 4814.296875 24032.617188 3814.882812 21730 4548.28125 C 20726.796875 4868.710938 19886.015625 5485.078125 18956.40625 5966.914062 C 18422.109375 6243.476562 17858.007812 6474.609375 17273.515625 6665.15625 C 15848.28125 7129.609375 14309.296875 7353.945312 12795.78125 7341.71875 C 12187.109375 7336.640625 11582.1875 7294.84375 10983.398438 7219.648438 C 9784.0625 7069.296875 8607.148438 6785.273438 7475.195312 6423.984375 C 7191.015625 6333.632812 6908.90625 6234.101562 6629.257812 6126.328125 C 4974.921875 5485.585938 3395.9375 4559.882812 1723.007812 3814.21875 C 60.078125 3074.101562 -1752.773438 2524.296875 -3447.460938 2689.804688 " transform="matrix(0.1, 0, 0, -0.1, 0, 1518.75)"/>
<path fill="none" stroke-width="18.5369" stroke-linecap="round" stroke-linejoin="round" stroke="rgb(10.545349%, 9.913635%, 9.561157%)" stroke-opacity="0.5" stroke-dasharray="0 168.75" stroke-miterlimit="10" d="M 29130.3125 4310 C 26728.710938 4907.382812 24094.414062 3913.789062 21793.007812 4566.484375 C 20790.78125 4851.914062 19942.304688 5418.515625 19008.789062 5863.359375 C 18471.992188 6118.632812 17906.71875 6332.773438 17321.71875 6511.367188 C 15895.117188 6946.5625 14361.210938 7171.5625 12852.5 7177.304688 C 12245.898438 7179.414062 11643.007812 7147.539062 11046.09375 7083.945312 C 9850.273438 6956.992188 8675.585938 6703.398438 7545.234375 6381.953125 C 7261.328125 6301.640625 6979.140625 6211.289062 6699.140625 6111.914062 C 5044.726562 5520.585938 3457.109375 4617.890625 1787.8125 3864.882812 C 131.875 3119.21875 -1659.492188 2534.6875 -3321.953125 2626.484375 " transform="matrix(0.1, 0, 0, -0.1, 0, 1518.75)"/>
<path fill="none" stroke-width="21.4134" stroke-linecap="round" stroke-linejoin="round" stroke="rgb(10.545349%, 9.913635%, 9.561157%)" stroke-opacity="0.5" stroke-dasharray="0 168.75" stroke-miterlimit="10" d="M 29169.6875 4426.289062 C 26769.492188 5000.390625 24156.210938 4012.8125 21856.015625 4584.804688 C 20854.882812 4835.117188 19998.515625 5351.914062 19061.09375 5759.804688 C 18521.796875 5993.789062 17955.390625 6190.976562 17369.882812 6357.539062 C 15941.914062 6763.515625 14413.203125 6989.21875 12909.21875 7012.890625 C 12304.6875 7022.1875 11703.789062 7000.234375 11108.789062 6948.28125 C 9916.484375 6844.6875 8744.023438 6621.523438 7615.3125 6339.882812 C 7331.640625 6269.648438 7049.375 6188.476562 6769.0625 6097.460938 C 5114.53125 5555.585938 3518.320312 4676.015625 1852.65625 3915.507812 C 203.632812 3164.21875 -1566.210938 2545 -3196.445312 2563.085938 " transform="matrix(0.1, 0, 0, -0.1, 0, 1518.75)"/>
<path fill="none" stroke-width="24.2898" stroke-linecap="round" stroke-linejoin="round" stroke="rgb(10.545349%, 9.913635%, 9.561157%)" stroke-opacity="0.5" stroke-dasharray="0 168.75" stroke-miterlimit="10" d="M 29209.101562 4542.695312 C 26810.3125 5093.398438 24218.007812 4111.796875 21919.101562 4603.007812 C 20918.90625 4818.28125 20054.804688 5285.351562 19113.398438 5656.210938 C 18571.71875 5868.945312 18004.101562 6049.140625 17418.085938 6203.75 C 15988.710938 6580.46875 14465.117188 6806.835938 12965.898438 6848.476562 C 12363.515625 6864.960938 11764.6875 6852.890625 11171.484375 6812.578125 C 9982.734375 6732.382812 8812.5 6539.648438 7685.351562 6297.851562 C 7401.914062 6237.65625 7119.609375 6165.664062 6838.945312 6083.046875 C 5184.335938 5590.585938 3579.492188 4733.984375 1917.460938 3966.09375 C 275.429688 3209.296875 -1472.929688 2555.390625 -3070.976562 2499.804688 " transform="matrix(0.1, 0, 0, -0.1, 0, 1518.75)"/>
<path fill="none" stroke-width="27.1662" stroke-linecap="round" stroke-linejoin="round" stroke="rgb(10.545349%, 9.913635%, 9.561157%)" stroke-opacity="0.5" stroke-dasharray="0 168.75" stroke-miterlimit="10" d="M 29248.515625 4659.101562 C 26851.09375 5186.484375 24279.804688 4210.78125 21982.109375 4621.289062 C 20982.890625 4801.484375 20111.09375 5218.789062 19165.703125 5552.65625 C 18621.484375 5744.101562 18052.8125 5907.304688 17466.210938 6049.921875 C 16035.507812 6397.421875 14517.109375 6624.453125 13022.617188 6684.0625 C 12422.1875 6707.773438 11825.507812 6705.585938 11234.296875 6676.914062 C 10048.90625 6620.039062 8880.9375 6457.773438 7755.429688 6255.820312 C 7472.226562 6205.625 7189.84375 6142.851562 6908.867188 6068.59375 C 5254.140625 5625.585938 3640.703125 4791.992188 1982.265625 4016.71875 C 347.1875 3254.296875 -1379.648438 2565.703125 -2945.46875 2436.40625 " transform="matrix(0.1, 0, 0, -0.1, 0, 1518.75)"/>
<path fill="none" stroke-width="30.0426" stroke-linecap="round" stroke-linejoin="round" stroke="rgb(10.545349%, 9.913635%, 9.561157%)" stroke-opacity="0.5" stroke-dasharray="0 168.75" stroke-miterlimit="10" d="M 29287.890625 4775.507812 C 26891.796875 5279.492188 24341.601562 4309.804688 22045.117188 4639.609375 C 21046.992188 4784.6875 20167.304688 5152.1875 19218.007812 5449.101562 C 18671.40625 5619.257812 18101.40625 5765.507812 17514.414062 5896.132812 C 16082.304688 6214.414062 14568.984375 6442.070312 13079.296875 6519.648438 C 12481.015625 6550.546875 11886.289062 6558.242188 11296.992188 6541.210938 C 10115.195312 6507.734375 8949.414062 6375.898438 7825.507812 6213.789062 C 7542.539062 6173.632812 7260.078125 6120.039062 6978.75 6054.179688 C 5323.945312 5660.585938 3701.875 4850.117188 2047.109375 4067.304688 C 418.984375 3299.414062 -1286.367188 2576.09375 -2819.960938 2373.085938 " transform="matrix(0.1, 0, 0, -0.1, 0, 1518.75)"/>
<path fill="none" stroke-width="32.919" stroke-linecap="round" stroke-linejoin="round" stroke="rgb(10.545349%, 9.913635%, 9.561157%)" stroke-opacity="0.5" stroke-dasharray="0 168.75" stroke-miterlimit="10" d="M 29327.304688 4891.796875 C 26932.617188 5372.539062 24403.398438 4408.789062 22108.203125 4657.8125 C 21111.015625 4768.007812 20223.59375 5085.585938 19270.3125 5345.546875 C 18721.210938 5494.414062 18150.117188 5623.671875 17562.617188 5742.304688 C 16129.101562 6031.367188 14621.015625 6259.6875 13136.015625 6355.234375 C 12539.804688 6393.320312 11947.109375 6410.9375 11359.6875 6405.546875 C 10181.40625 6395.429688 9017.851562 6294.023438 7895.546875 6171.757812 C 7612.8125 6141.640625 7330.3125 6097.226562 7048.632812 6039.765625 C 5393.75 5695.585938 3763.085938 4908.085938 2111.914062 4118.007812 C 490.78125 3344.414062 -1193.085938 2586.40625 -2694.453125 2309.6875 " transform="matrix(0.1, 0, 0, -0.1, 0, 1518.75)"/>
<path fill="none" stroke-width="35.7955" stroke-linecap="round" stroke-linejoin="round" stroke="rgb(10.545349%, 9.913635%, 9.561157%)" stroke-opacity="0.5" stroke-dasharray="0 168.75" stroke-miterlimit="10" d="M 29366.71875 5008.203125 C 26973.398438 5465.585938 24465.195312 4507.8125 22171.210938 4676.09375 C 21175.117188 4751.210938 20279.882812 5018.984375 19322.617188 5241.953125 C 18771.09375 5369.570312 18198.789062 5481.835938 17610.78125 5588.515625 C 16175.898438 5848.320312 14672.890625 6077.304688 13192.695312 6190.820312 C 12598.59375 6236.09375 12008.007812 6263.59375 11422.382812 6269.84375 C 10247.617188 6283.125 9086.289062 6212.148438 7965.625 6129.6875 C 7683.125 6109.648438 7400.546875 6074.414062 7118.554688 6025.3125 C 5463.554688 5730.585938 3824.257812 4966.09375 2176.757812 4168.59375 C 562.539062 3389.492188 -1099.84375 2596.796875 -2568.945312 2246.40625 " transform="matrix(0.1, 0, 0, -0.1, 0, 1518.75)"/>
<path fill="none" stroke-width="38.6719" stroke-linecap="round" stroke-linejoin="round" stroke="rgb(10.545349%, 9.913635%, 9.561157%)" stroke-opacity="0.5" stroke-dasharray="0 168.75" stroke-miterlimit="10" d="M 29406.09375 5124.609375 C 27014.101562 5558.632812 24526.992188 4606.71875 22234.21875 4694.296875 C 21239.101562 4734.414062 20336.09375 4952.5 19375 5138.398438 C 18821.015625 5244.726562 18247.5 5340.039062 17658.984375 5434.6875 C 16222.695312 5665.273438 14724.882812 5894.921875 13249.414062 6026.40625 C 12657.382812 6078.867188 12068.789062 6116.289062 11485.117188 6134.179688 C 10313.789062 6170.820312 9154.765625 6130.273438 8035.664062 6087.65625 C 7753.4375 6077.65625 7470.742188 6051.601562 7188.4375 6010.898438 C 5533.359375 5765.585938 3885.46875 5024.21875 2241.5625 4219.21875 C 634.335938 3434.492188 -1006.5625 2607.1875 -2443.4375 2183.007812 " transform="matrix(0.1, 0, 0, -0.1, 0, 1518.75)"/>
<path fill="none" stroke-width="41.5483" stroke-linecap="round" stroke-linejoin="round" stroke="rgb(10.545349%, 9.913635%, 9.561157%)" stroke-opacity="0.5" stroke-dasharray="0 168.75" stroke-miterlimit="10" d="M 29445.585938 5240.976562 C 27054.882812 5651.640625 24588.90625 4705.703125 22297.304688 4712.617188 C 21303.085938 4717.617188 20392.382812 4885.898438 19427.304688 5034.804688 C 18870.78125 5119.882812 18296.210938 5198.203125 17707.1875 5280.898438 C 16269.414062 5482.226562 14776.796875 5712.578125 13306.09375 5861.992188 C 12716.210938 5921.640625 12129.609375 5968.945312 11547.890625 5998.476562 C 10380.117188 6058.515625 9223.203125 6048.398438 8105.742188 6045.625 C 7823.710938 6045.625 7540.976562 6028.789062 7258.320312 5996.484375 C 5603.164062 5800.585938 3946.640625 5082.1875 2306.367188 4269.804688 C 706.09375 3479.609375 -913.28125 2617.5 -2317.929688 2119.6875 " transform="matrix(0.1, 0, 0, -0.1, 0, 1518.75)"/>
<path fill="none" stroke-width="44.4247" stroke-linecap="round" stroke-linejoin="round" stroke="rgb(10.545349%, 9.913635%, 9.561157%)" stroke-opacity="0.5" stroke-dasharray="0 168.75" stroke-miterlimit="10" d="M 29485 5357.34375 C 27095.703125 5744.6875 24650.703125 4804.6875 22360.3125 4730.898438 C 21367.1875 4700.78125 20448.59375 4819.296875 19479.609375 4931.289062 C 18920.703125 4995 18344.882812 5056.40625 17755.3125 5127.109375 C 16316.210938 5299.21875 14828.789062 5530.195312 13362.8125 5697.578125 C 12775 5764.453125 12190.507812 5821.640625 11610.585938 5862.8125 C 10446.289062 5946.171875 9291.640625 5966.523438 8175.820312 6003.554688 C 7894.023438 6013.632812 7611.210938 6005.976562 7328.242188 5982.03125 C 5672.96875 5835.585938 4007.851562 5140.3125 2371.171875 4320.507812 C 777.890625 3524.609375 -820 2627.890625 -2192.421875 2056.40625 " transform="matrix(0.1, 0, 0, -0.1, 0, 1518.75)"/>
<path fill="none" stroke-width="47.3011" stroke-linecap="round" stroke-linejoin="round" stroke="rgb(10.545349%, 9.913635%, 9.561157%)" stroke-opacity="0.5" stroke-dasharray="0 168.75" stroke-miterlimit="10" d="M 29524.414062 5473.710938 C 27136.484375 5837.734375 24712.5 4903.710938 22423.398438 4749.101562 C 21431.210938 4683.984375 20504.882812 4752.695312 19531.914062 4827.695312 C 18970.507812 4870.195312 18393.59375 4914.609375 17803.515625 4973.28125 C 16363.007812 5116.210938 14880.703125 5347.8125 13419.492188 5533.164062 C 12833.710938 5607.226562 12251.289062 5674.296875 11673.28125 5727.148438 C 10512.5 5833.867188 9360.117188 5884.648438 8245.859375 5961.523438 C 7964.335938 5981.640625 7681.445312 5983.164062 7398.125 5967.617188 C 5742.773438 5870.585938 4069.023438 5198.28125 2436.015625 4371.09375 C 849.648438 3569.609375 -726.71875 2638.203125 -2066.914062 1993.007812 " transform="matrix(0.1, 0, 0, -0.1, 0, 1518.75)"/>
<path fill="none" stroke-width="50.1776" stroke-linecap="round" stroke-linejoin="round" stroke="rgb(10.545349%, 9.913635%, 9.561157%)" stroke-opacity="0.5" stroke-dasharray="0 168.75" stroke-miterlimit="10" d="M 29563.789062 5590.078125 C 27177.1875 5930.78125 24774.296875 5002.695312 22486.40625 4767.382812 C 21495.3125 4667.1875 20561.210938 4686.210938 19584.21875 4724.21875 C 19020.390625 4745.390625 18442.1875 4772.695312 17851.71875 4819.492188 C 16409.804688 4933.085938 14932.695312 5165.390625 13476.210938 5368.789062 C 12892.5 5450 12312.109375 5526.992188 11736.015625 5591.445312 C 10578.710938 5721.5625 9428.554688 5802.773438 8315.9375 5919.492188 C 8034.609375 5949.648438 7751.679688 5960.351562 7468.007812 5953.164062 C 5812.578125 5905.585938 4130.234375 5256.328125 2500.820312 4421.71875 C 921.445312 3614.6875 -633.4375 2648.59375 -1941.445312 1929.6875 " transform="matrix(0.1, 0, 0, -0.1, 0, 1518.75)"/>
<path fill="none" stroke-width="53.054" stroke-linecap="round" stroke-linejoin="round" stroke="rgb(10.545349%, 9.913635%, 9.561157%)" stroke-opacity="0.5" stroke-dasharray="0 168.75" stroke-miterlimit="10" d="M 29603.203125 5706.484375 C 27218.007812 6023.828125 24836.09375 5101.71875 22549.414062 4785.585938 C 21559.296875 4650.390625 20617.382812 4619.609375 19636.484375 4620.585938 C 19070.3125 4620.507812 18490.898438 4630.898438 17899.882812 4665.585938 C 16456.601562 4750.117188 14984.609375 4983.085938 13532.8125 5204.375 C 12951.289062 5292.773438 12372.890625 5379.6875 11798.710938 5455.742188 C 10645 5609.257812 9496.992188 5720.898438 8386.015625 5877.460938 C 8104.921875 5917.65625 7821.914062 5937.539062 7537.929688 5938.75 C 5882.382812 5940.585938 4191.40625 5314.375 2565.664062 4472.304688 C 993.242188 3659.6875 -540.15625 2658.90625 -1815.9375 1866.289062 " transform="matrix(0.1, 0, 0, -0.1, 0, 1518.75)"/>
<path fill="none" stroke-width="55.9304" stroke-linecap="round" stroke-linejoin="round" stroke="rgb(10.545349%, 9.913635%, 9.561157%)" stroke-opacity="0.5" stroke-dasharray="0 168.75" stroke-miterlimit="10" d="M 29642.617188 5822.851562 C 27258.789062 6116.875 24897.890625 5200.664062 22612.5 4803.90625 C 21623.28125 4633.59375 20673.710938 4553.007812 19688.789062 4516.992188 C 19120.117188 4495.703125 18539.609375 4489.101562 17948.085938 4511.796875 C 16503.398438 4566.992188 15036.601562 4800.703125 13589.492188 5039.882812 C 13010.117188 5135.585938 12433.789062 5232.34375 11861.484375 5320.078125 C 10711.210938 5496.953125 9565.46875 5639.023438 8456.054688 5835.390625 C 8175.234375 5885.625 7892.148438 5914.726562 7607.8125 5924.335938 C 5952.1875 5975.625 4252.617188 5372.421875 2630.46875 4522.890625 C 1065 3704.804688 -446.875 2669.296875 -1690.429688 1803.007812 " transform="matrix(0.1, 0, 0, -0.1, 0, 1518.75)"/>
<path fill="none" stroke-width="58.8068" stroke-linecap="round" stroke-linejoin="round" stroke="rgb(10.545349%, 9.913635%, 9.561157%)" stroke-opacity="0.5" stroke-dasharray="0 168.75" stroke-miterlimit="10" d="M 29681.992188 5939.21875 C 27299.492188 6209.882812 24959.6875 5299.648438 22675.507812 4822.1875 C 21687.382812 4616.796875 20730 4486.40625 19741.210938 4413.515625 C 19170 4370.78125 18588.28125 4347.304688 17996.289062 4358.007812 C 16550.195312 4383.984375 15088.515625 4618.28125 13646.210938 4875.507812 C 13068.90625 4978.28125 12494.609375 5085 11924.21875 5184.414062 C 10777.382812 5384.648438 9633.90625 5557.148438 8526.132812 5793.359375 C 8245.507812 5853.632812 7962.382812 5891.914062 7677.695312 5909.882812 C 6021.992188 6010.625 4313.789062 5430.46875 2695.273438 4573.59375 C 1136.796875 3749.804688 -353.59375 2679.609375 -1564.921875 1739.609375 " transform="matrix(0.1, 0, 0, -0.1, 0, 1518.75)"/>
<path fill="none" stroke-width="61.6832" stroke-linecap="round" stroke-linejoin="round" stroke="rgb(10.545349%, 9.913635%, 9.561157%)" stroke-opacity="0.5" stroke-dasharray="0 168.75" stroke-miterlimit="10" d="M 29721.40625 6055.585938 C 27340.3125 6302.929688 25021.484375 5398.632812 22738.515625 4840.390625 C 21751.40625 4600 20786.210938 4419.882812 19793.515625 4309.882812 C 19219.804688 4246.015625 18636.992188 4205.507812 18044.492188 4204.21875 C 16596.992188 4201.015625 15140.390625 4435.898438 13702.890625 4711.09375 C 13127.695312 4821.09375 12555.390625 4937.695312 11986.914062 5048.710938 C 10843.59375 5272.304688 9702.34375 5475.273438 8596.171875 5751.328125 C 8315.820312 5821.640625 8032.617188 5869.0625 7747.617188 5895.46875 C 6091.796875 6045.625 4375 5488.476562 2760.117188 4624.21875 C 1208.554688 3794.882812 -260.3125 2690 -1439.414062 1676.289062 " transform="matrix(0.1, 0, 0, -0.1, 0, 1518.75)"/>
<path fill="none" stroke-width="64.5597" stroke-linecap="round" stroke-linejoin="round" stroke="rgb(10.545349%, 9.913635%, 9.561157%)" stroke-opacity="0.5" stroke-dasharray="0 168.75" stroke-miterlimit="10" d="M 29760.78125 6171.953125 C 27381.09375 6395.976562 25083.28125 5497.617188 22801.601562 4858.710938 C 21815.507812 4583.203125 20842.5 4353.28125 19845.78125 4206.289062 C 19269.6875 4121.09375 18685.703125 4063.59375 18092.617188 4050.390625 C 16643.789062 4017.890625 15192.382812 4253.59375 13759.609375 4546.71875 C 13186.484375 4663.90625 12616.210938 4790.390625 12049.609375 4913.007812 C 10909.882812 5160 9770.820312 5393.398438 8666.25 5709.296875 C 8386.09375 5789.648438 8102.851562 5846.289062 7817.5 5881.054688 C 6161.601562 6080.625 4436.171875 5546.523438 2824.921875 4674.804688 C 1280.351562 3839.882812 -167.070312 2700.390625 -1313.90625 1612.890625 " transform="matrix(0.1, 0, 0, -0.1, 0, 1518.75)"/>
<path fill="none" stroke-width="67.4361" stroke-linecap="round" stroke-linejoin="round" stroke="rgb(10.545349%, 9.913635%, 9.561157%)" stroke-opacity="0.5" stroke-dasharray="0 168.75" stroke-miterlimit="10" d="M 29800.195312 6288.359375 C 27421.796875 6489.023438 25145.195312 5596.601562 22864.609375 4876.914062 C 21879.492188 4566.40625 20898.789062 4286.71875 19898.085938 4102.8125 C 19319.609375 3996.289062 18734.296875 3921.796875 18140.78125 3896.601562 C 16690.585938 3834.882812 15244.296875 4071.210938 13816.289062 4382.304688 C 13245.195312 4506.71875 12677.109375 4643.085938 12112.304688 4777.382812 C 10976.09375 5047.695312 9839.257812 5311.523438 8736.328125 5667.226562 C 8456.40625 5757.65625 8173.085938 5823.4375 7887.382812 5866.601562 C 6231.40625 6115.625 4497.382812 5604.570312 2889.726562 4725.390625 C 1352.109375 3885 -73.789062 2710.703125 -1188.398438 1549.609375 " transform="matrix(0.1, 0, 0, -0.1, 0, 1518.75)"/>
<path fill="none" stroke-width="70.3125" stroke-linecap="round" stroke-linejoin="round" stroke="rgb(10.545349%, 9.913635%, 9.561157%)" stroke-opacity="0.5" stroke-dasharray="0 168.75" stroke-miterlimit="10" d="M 29839.6875 6404.726562 C 25842.8125 6702.890625 22189.101562 3993.398438 18188.984375 3742.8125 C 16156.992188 3615.507812 14145.78125 4130.703125 12175.117188 4641.71875 C 11042.304688 4935.390625 9907.695312 5229.648438 8806.367188 5625.195312 C 5361.835938 6862.304688 1349.648438 4238.515625 -1062.890625 1486.289062 " transform="matrix(0.1, 0, 0, -0.1, 0, 1518.75)"/>
<path fill="none" stroke-width="67.1165" stroke-linecap="round" stroke-linejoin="round" stroke="rgb(10.545349%, 9.913635%, 9.561157%)" stroke-opacity="0.5" stroke-dasharray="0 168.75" stroke-miterlimit="10" d="M -1159.492188 1409.101562 C 133.007812 2815.898438 1835.429688 4203.515625 3660.585938 5048.007812 C 5326.523438 5818.320312 7096.09375 6134.335938 8746.484375 5595.664062 C 9006.5625 5510.78125 9268.554688 5430.976562 9531.953125 5354.84375 C 10386.796875 5107.695312 11257.1875 4899.6875 12126.484375 4686.40625 C 13220.507812 4418.085938 14326.09375 4139.609375 15436.71875 3952.109375 C 16334.492188 3800.585938 17235.195312 3709.296875 18139.609375 3740.507812 C 19594.609375 3789.804688 21004.609375 4151.484375 22412.8125 4602.382812 C 24857.304688 5386.679688 27275.898438 6352.265625 29812.1875 6204.609375 " transform="matrix(0.1, 0, 0, -0.1, 0, 1518.75)"/>
<path fill="none" stroke-width="63.9205" stroke-linecap="round" stroke-linejoin="round" stroke="rgb(10.545349%, 9.913635%, 9.561157%)" stroke-opacity="0.5" stroke-dasharray="0 168.75" stroke-miterlimit="10" d="M -1256.09375 1331.992188 C 69.21875 2708.398438 1778.203125 4081.71875 3605.078125 4934.804688 C 5268.203125 5710.742188 7031.796875 6052.34375 8686.601562 5566.132812 C 8947.421875 5489.53125 9210.117188 5417.421875 9474.335938 5348.4375 C 10331.601562 5124.414062 11205.390625 4933.203125 12077.890625 4731.210938 C 13176.484375 4477.109375 14286.015625 4203.789062 15396.484375 4004.492188 C 16293.515625 3843.789062 17190.195312 3732.8125 18090.195312 3738.203125 C 19539.296875 3745.390625 20944.804688 4049.296875 22359.296875 4470 C 24811.210938 5202.109375 27249.492188 6110.507812 29784.6875 6004.492188 " transform="matrix(0.1, 0, 0, -0.1, 0, 1518.75)"/>
<path fill="none" stroke-width="60.7244" stroke-linecap="round" stroke-linejoin="round" stroke="rgb(10.545349%, 9.913635%, 9.561157%)" stroke-opacity="0.5" stroke-dasharray="0 168.75" stroke-miterlimit="10" d="M -1352.695312 1254.804688 C 5.429688 2601.015625 1720.976562 3959.804688 3549.53125 4821.601562 C 5209.882812 5603.125 6967.5 5970.351562 8626.71875 5536.601562 C 8888.242188 5468.28125 9151.71875 5403.867188 9416.71875 5341.992188 C 10276.484375 5141.015625 11153.515625 4966.71875 12029.296875 4776.015625 C 13132.617188 4536.015625 14245.898438 4267.890625 15356.210938 4056.914062 C 16252.382812 3886.992188 17145.195312 3756.289062 18040.78125 3736.015625 C 19484.101562 3700.898438 20885 3946.992188 22305.78125 4337.5 C 24765.117188 5017.5 27223.007812 5868.75 29757.304688 5804.414062 " transform="matrix(0.1, 0, 0, -0.1, 0, 1518.75)"/>
<path fill="none" stroke-width="57.5284" stroke-linecap="round" stroke-linejoin="round" stroke="rgb(10.545349%, 9.913635%, 9.561157%)" stroke-opacity="0.5" stroke-dasharray="0 168.75" stroke-miterlimit="10" d="M -1449.335938 1177.695312 C -58.398438 2493.515625 1663.75 3837.890625 3494.023438 4708.515625 C 5151.5625 5495.546875 6903.203125 5888.359375 8566.835938 5507.109375 C 8829.101562 5447.03125 9093.28125 5390.273438 9359.140625 5335.546875 C 10221.289062 5157.617188 11101.71875 5000.3125 11980.703125 4820.78125 C 13088.59375 4595 14205.898438 4331.992188 15316.015625 4109.296875 C 16211.289062 3930.195312 17100.195312 3779.804688 17991.40625 3733.710938 C 19428.789062 3656.40625 20825.3125 3844.804688 22252.304688 4205 C 24718.984375 4832.890625 27196.484375 5626.992188 29729.804688 5604.296875 " transform="matrix(0.1, 0, 0, -0.1, 0, 1518.75)"/>
<path fill="none" stroke-width="54.3324" stroke-linecap="round" stroke-linejoin="round" stroke="rgb(10.545349%, 9.913635%, 9.561157%)" stroke-opacity="0.5" stroke-dasharray="0 168.75" stroke-miterlimit="10" d="M -1545.9375 1100.507812 C -122.1875 2386.09375 1606.523438 3716.015625 3438.476562 4595.3125 C 5093.242188 5387.96875 6838.90625 5806.328125 8506.953125 5477.578125 C 8769.921875 5425.78125 9034.882812 5376.757812 9301.523438 5329.101562 C 10166.09375 5174.296875 11049.804688 5033.789062 11932.109375 4865.507812 C 13044.609375 4653.90625 14165.78125 4396.210938 15275.78125 4161.71875 C 16170.195312 3973.398438 17055.195312 3803.28125 17941.992188 3731.40625 C 19373.59375 3611.914062 20765.507812 3742.5 22198.710938 4072.617188 C 24672.8125 4648.398438 27170.117188 5385.234375 29702.382812 5404.179688 " transform="matrix(0.1, 0, 0, -0.1, 0, 1518.75)"/>
<path fill="none" stroke-width="51.1364" stroke-linecap="round" stroke-linejoin="round" stroke="rgb(10.545349%, 9.913635%, 9.561157%)" stroke-opacity="0.5" stroke-dasharray="0 168.75" stroke-miterlimit="10" d="M -1642.539062 1023.398438 C -185.976562 2278.59375 1549.257812 3594.21875 3382.96875 4482.1875 C 5034.921875 5280.351562 6774.609375 5724.335938 8447.070312 5448.046875 C 8710.78125 5404.53125 8976.484375 5363.164062 9243.90625 5322.695312 C 10110.898438 5190.898438 10997.890625 5067.304688 11883.515625 4910.3125 C 13000.703125 4712.890625 14125.703125 4460.3125 15235.585938 4214.101562 C 16129.101562 4016.484375 17010.195312 3826.796875 17892.617188 3729.101562 C 19318.28125 3567.382812 20705.703125 3640.3125 22145.195312 3940.117188 C 24626.71875 4463.789062 27143.59375 5143.515625 29674.882812 5204.0625 " transform="matrix(0.1, 0, 0, -0.1, 0, 1518.75)"/>
<path fill="none" stroke-width="47.9403" stroke-linecap="round" stroke-linejoin="round" stroke="rgb(10.545349%, 9.913635%, 9.561157%)" stroke-opacity="0.5" stroke-dasharray="0 168.75" stroke-miterlimit="10" d="M -1739.140625 946.210938 C -249.804688 2171.09375 1492.03125 3472.304688 3327.421875 4368.984375 C 4976.601562 5172.8125 6710.3125 5642.34375 8387.1875 5418.515625 C 8651.601562 5383.320312 8918.046875 5349.609375 9186.328125 5316.25 C 10055.703125 5207.539062 10946.09375 5100.78125 11834.882812 4955.117188 C 12956.71875 4771.796875 14085.585938 4524.492188 15195.3125 4266.484375 C 16088.007812 4059.6875 16965.195312 3850.3125 17843.203125 3726.796875 C 19263.085938 3522.890625 20645.898438 3538.007812 22091.71875 3807.695312 C 24580.585938 4279.21875 27117.109375 4901.71875 29647.5 5003.984375 " transform="matrix(0.1, 0, 0, -0.1, 0, 1518.75)"/>
<path fill="none" stroke-width="44.7443" stroke-linecap="round" stroke-linejoin="round" stroke="rgb(10.545349%, 9.913635%, 9.561157%)" stroke-opacity="0.5" stroke-dasharray="0 168.75" stroke-miterlimit="10" d="M -1835.742188 869.101562 C -313.59375 2063.710938 1434.804688 3350.390625 3271.914062 4255.78125 C 4918.28125 5065.195312 6646.015625 5560.3125 8327.304688 5388.984375 C 8592.421875 5362.070312 8859.648438 5336.054688 9128.710938 5309.804688 C 10000.585938 5224.179688 10894.21875 5134.296875 11786.289062 4999.804688 C 12912.695312 4830.78125 14045.585938 4588.59375 15155.117188 4318.90625 C 16046.914062 4102.890625 16920.195312 3873.789062 17793.789062 3724.609375 C 19207.8125 3478.515625 20586.09375 3435.78125 22038.203125 3675.195312 C 24534.492188 4094.609375 27090.703125 4660 29620 4803.90625 " transform="matrix(0.1, 0, 0, -0.1, 0, 1518.75)"/>
<path fill="none" stroke-width="41.5483" stroke-linecap="round" stroke-linejoin="round" stroke="rgb(10.545349%, 9.913635%, 9.561157%)" stroke-opacity="0.5" stroke-dasharray="0 168.75" stroke-miterlimit="10" d="M -1932.34375 791.914062 C -377.382812 1956.210938 1377.578125 3228.515625 3216.40625 4142.695312 C 4859.960938 4957.617188 6581.71875 5478.320312 8267.421875 5359.453125 C 8533.28125 5340.820312 8801.210938 5322.5 9071.09375 5303.398438 C 9945.351562 5240.820312 10842.382812 5167.8125 11737.695312 5044.609375 C 12868.789062 4889.6875 14005.507812 4652.8125 15114.882812 4371.289062 C 16005.898438 4146.09375 16875.195312 3897.304688 17744.414062 3722.304688 C 19152.617188 3433.984375 20526.289062 3333.59375 21984.609375 3542.695312 C 24488.398438 3910.117188 27064.21875 4418.203125 29592.617188 4603.789062 " transform="matrix(0.1, 0, 0, -0.1, 0, 1518.75)"/>
<path fill="none" stroke-width="38.3523" stroke-linecap="round" stroke-linejoin="round" stroke="rgb(10.545349%, 9.913635%, 9.561157%)" stroke-opacity="0.5" stroke-dasharray="0 168.75" stroke-miterlimit="10" d="M -2028.945312 714.804688 C -441.171875 1848.789062 1320.351562 3106.71875 3160.859375 4029.492188 C 4801.640625 4850 6517.421875 5396.328125 8207.539062 5329.921875 C 8474.101562 5319.570312 8742.8125 5308.945312 9013.515625 5296.953125 C 9890.195312 5257.460938 10790.507812 5201.328125 11689.101562 5089.414062 C 12824.804688 4948.710938 13965.390625 4716.914062 15074.609375 4423.710938 C 15964.804688 4189.296875 16830.195312 3920.78125 17695 3720 C 19097.304688 3389.492188 20466.484375 3231.289062 21931.09375 3410.3125 C 24442.1875 3725.507812 27037.695312 4176.484375 29565.117188 4403.59375 " transform="matrix(0.1, 0, 0, -0.1, 0, 1518.75)"/>
<path fill="none" stroke-width="35.1563" stroke-linecap="round" stroke-linejoin="round" stroke="rgb(10.545349%, 9.913635%, 9.561157%)" stroke-opacity="0.5" stroke-dasharray="0 168.75" stroke-miterlimit="10" d="M -2125.546875 637.695312 C -505 1741.289062 1263.125 2984.804688 3105.351562 3916.289062 C 4743.359375 4742.382812 6453.125 5314.296875 8147.65625 5300.390625 C 8414.960938 5298.320312 8684.414062 5295.390625 8955.898438 5290.507812 C 9835 5274.101562 10738.710938 5234.84375 11640.507812 5134.21875 C 12780.898438 5007.617188 13925.3125 4781.09375 15034.414062 4476.09375 C 15923.710938 4232.5 16785.195312 3944.296875 17645.585938 3717.695312 C 19042.109375 3345 20406.796875 3129.101562 21877.617188 3277.8125 C 24396.09375 3540.898438 27011.289062 3934.6875 29537.695312 4203.515625 " transform="matrix(0.1, 0, 0, -0.1, 0, 1518.75)"/>
<path fill="none" stroke-width="31.9602" stroke-linecap="round" stroke-linejoin="round" stroke="rgb(10.545349%, 9.913635%, 9.561157%)" stroke-opacity="0.5" stroke-dasharray="0 168.75" stroke-miterlimit="10" d="M -2222.148438 560.507812 C -568.789062 1633.90625 1205.898438 2862.890625 3049.84375 3803.203125 C 4685.039062 4634.804688 6388.828125 5232.304688 8087.773438 5270.898438 C 8355.78125 5277.070312 8625.976562 5281.835938 8898.28125 5284.101562 C 9779.84375 5290.742188 10686.796875 5268.359375 11591.914062 5178.90625 C 12736.914062 5066.601562 13885.3125 4845.195312 14994.21875 4528.515625 C 15882.617188 4275.703125 16740.195312 3967.8125 17596.210938 3715.507812 C 18986.796875 3300.507812 20346.992188 3026.796875 21824.101562 3145.3125 C 24350 3356.289062 26984.804688 3693.007812 29510.195312 4003.398438 " transform="matrix(0.1, 0, 0, -0.1, 0, 1518.75)"/>
<path fill="none" stroke-width="28.7642" stroke-linecap="round" stroke-linejoin="round" stroke="rgb(10.545349%, 9.913635%, 9.561157%)" stroke-opacity="0.5" stroke-dasharray="0 168.75" stroke-miterlimit="10" d="M -2318.75 483.398438 C -632.578125 1526.40625 1148.632812 2741.015625 2994.296875 3690 C 4626.71875 4527.1875 6324.53125 5150.3125 8027.890625 5241.367188 C 8296.640625 5255.820312 8567.578125 5268.28125 8840.703125 5277.65625 C 9724.648438 5307.382812 10635 5301.875 11543.28125 5223.710938 C 12692.890625 5125.507812 13845.195312 4909.414062 14953.984375 4580.898438 C 15841.484375 4318.789062 16695.195312 3991.289062 17546.796875 3713.203125 C 18931.601562 3256.09375 20287.1875 2924.609375 21770.507812 3012.890625 C 24303.90625 3171.796875 26958.28125 3451.210938 29482.8125 3803.28125 " transform="matrix(0.1, 0, 0, -0.1, 0, 1518.75)"/>
<path fill="none" stroke-width="25.5682" stroke-linecap="round" stroke-linejoin="round" stroke="rgb(10.545349%, 9.913635%, 9.561157%)" stroke-opacity="0.5" stroke-dasharray="0 168.75" stroke-miterlimit="10" d="M -2415.351562 406.210938 C -696.40625 1418.90625 1091.40625 2619.21875 2938.789062 3576.914062 C 4568.398438 4419.609375 6260.234375 5068.28125 7968.007812 5211.835938 C 8237.460938 5234.570312 8509.179688 5254.726562 8783.085938 5271.210938 C 9669.453125 5323.984375 10583.085938 5335.351562 11494.804688 5268.476562 C 12648.984375 5184.492188 13805.117188 4973.515625 14913.710938 4633.28125 C 15800.390625 4361.992188 16650.195312 4014.804688 17497.382812 3710.898438 C 18876.289062 3211.601562 20227.382812 2822.304688 21716.992188 2880.390625 C 24257.8125 2987.1875 26931.914062 3209.492188 29455.3125 3603.203125 " transform="matrix(0.1, 0, 0, -0.1, 0, 1518.75)"/>
<path fill="none" stroke-width="22.3722" stroke-linecap="round" stroke-linejoin="round" stroke="rgb(10.545349%, 9.913635%, 9.561157%)" stroke-opacity="0.5" stroke-dasharray="0 168.75" stroke-miterlimit="10" d="M -2511.953125 329.101562 C -760.195312 1311.484375 1034.179688 2497.304688 2883.242188 3463.710938 C 4510.078125 4311.992188 6195.9375 4986.289062 7908.125 5182.304688 C 8178.320312 5213.320312 8450.742188 5241.171875 8725.507812 5264.804688 C 9614.296875 5340.625 10531.210938 5368.867188 11446.210938 5313.242188 C 12605 5243.4375 13765 5037.695312 14873.515625 4685.703125 C 15759.296875 4405.195312 16605.195312 4038.28125 17448.007812 3708.59375 C 18821.09375 3167.109375 20167.617188 2720.117188 21663.515625 2748.007812 C 24211.71875 2802.617188 26905.390625 2967.695312 29427.8125 3403.085938 " transform="matrix(0.1, 0, 0, -0.1, 0, 1518.75)"/>
<path fill="none" stroke-width="19.1761" stroke-linecap="round" stroke-linejoin="round" stroke="rgb(10.545349%, 9.913635%, 9.561157%)" stroke-opacity="0.5" stroke-dasharray="0 168.75" stroke-miterlimit="10" d="M -2608.554688 251.914062 C -823.984375 1203.984375 976.953125 2375.390625 2827.734375 3350.507812 C 4451.757812 4204.414062 6131.640625 4904.296875 7848.242188 5152.8125 C 8119.140625 5192.070312 8392.34375 5227.617188 8667.890625 5258.359375 C 9559.101562 5357.265625 10479.414062 5402.382812 11397.617188 5358.007812 C 12561.015625 5302.382812 13725 5101.796875 14833.28125 4738.085938 C 15718.203125 4448.398438 16560.195312 4061.796875 17398.59375 3706.289062 C 18765.898438 3122.617188 20107.8125 2617.890625 21610 2615.507812 C 24165.507812 2618.085938 26878.984375 2726.015625 29400.390625 3203.007812 " transform="matrix(0.1, 0, 0, -0.1, 0, 1518.75)"/>
<path fill="none" stroke-width="15.9801" stroke-linecap="round" stroke-linejoin="round" stroke="rgb(10.545349%, 9.913635%, 9.561157%)" stroke-opacity="0.5" stroke-dasharray="0 168.75" stroke-miterlimit="10" d="M -2705.15625 174.804688 C -887.8125 1096.601562 919.726562 2253.515625 2772.226562 3237.382812 C 4393.4375 4096.914062 6067.34375 4822.304688 7788.359375 5123.203125 C 8059.960938 5170.78125 8333.945312 5214.0625 8610.273438 5251.914062 C 9503.945312 5373.90625 10427.5 5435.898438 11348.984375 5402.773438 C 12517.109375 5361.328125 13684.882812 5166.015625 14793.007812 4790.507812 C 15677.1875 4491.601562 16515.195312 4085.3125 17349.21875 3704.101562 C 18710.585938 3078.085938 20048.085938 2515.585938 21556.40625 2483.007812 C 24119.414062 2433.515625 26852.5 2484.21875 29372.890625 3002.890625 " transform="matrix(0.1, 0, 0, -0.1, 0, 1518.75)"/>
<path fill="none" stroke-width="12.7841" stroke-linecap="round" stroke-linejoin="round" stroke="rgb(10.545349%, 9.913635%, 9.561157%)" stroke-opacity="0.5" stroke-dasharray="0 168.75" stroke-miterlimit="10" d="M -2801.757812 97.617188 C -951.601562 989.101562 862.5 2131.71875 2716.679688 3124.21875 C 4335.117188 3989.296875 6003.046875 4740.3125 7728.476562 5093.710938 C 8000.820312 5149.609375 8275.507812 5200.507812 8552.695312 5245.507812 C 9448.75 5390.546875 10375.703125 5469.414062 11300.390625 5447.539062 C 12473.085938 5420.273438 13644.804688 5230.117188 14752.8125 4842.890625 C 15636.09375 4534.804688 16470.195312 4108.789062 17299.6875 3701.796875 C 18655.390625 3033.710938 19988.28125 2413.398438 21502.890625 2350.585938 C 24073.28125 2248.90625 26826.015625 2242.5 29345.507812 2802.8125 " transform="matrix(0.1, 0, 0, -0.1, 0, 1518.75)"/>
<path fill="none" stroke-width="9.58807" stroke-linecap="round" stroke-linejoin="round" stroke="rgb(10.545349%, 9.913635%, 9.561157%)" stroke-opacity="0.5" stroke-dasharray="0 168.75" stroke-miterlimit="10" d="M -2898.359375 20.507812 C -1015.390625 881.679688 805.273438 2009.804688 2661.171875 3011.09375 C 4276.796875 3881.71875 5938.710938 4658.28125 7668.59375 5064.21875 C 7941.640625 5128.28125 8217.109375 5186.914062 8495.078125 5239.0625 C 9393.554688 5407.1875 10323.789062 5502.929688 11251.796875 5492.34375 C 12429.21875 5479.21875 13604.6875 5294.257812 14712.617188 4895.3125 C 15595 4578.007812 16425.195312 4132.304688 17250.3125 3699.492188 C 18600.117188 2989.21875 19928.515625 2311.09375 21449.414062 2218.085938 C 24027.1875 2064.296875 26799.609375 2000.703125 29318.007812 2602.695312 " transform="matrix(0.1, 0, 0, -0.1, 0, 1518.75)"/>
<g clip-path="url(#clip-0)">
<path fill="none" stroke-width="6.39205" stroke-linecap="round" stroke-linejoin="round" stroke="rgb(10.545349%, 9.913635%, 9.561157%)" stroke-opacity="0.5" stroke-dasharray="0 168.75" stroke-miterlimit="10" d="M -2994.960938 -56.679688 C -1079.21875 774.179688 748.007812 1887.890625 2605.625 2897.890625 C 4218.515625 3774.101562 5874.453125 4576.289062 7608.710938 5034.6875 C 7882.5 5107.109375 8158.671875 5173.398438 8437.460938 5232.617188 C 9338.398438 5423.828125 10271.992188 5536.445312 11203.203125 5537.109375 C 12385.195312 5538.164062 13564.6875 5358.398438 14672.382812 4947.695312 C 15553.90625 4621.09375 16380.195312 4155.78125 17200.898438 3697.1875 C 18544.882812 2944.6875 19868.710938 2208.90625 21395.898438 2085.703125 C 23981.09375 1879.804688 26773.085938 1758.984375 29290.585938 2402.617188 " transform="matrix(0.1, 0, 0, -0.1, 0, 1518.75)"/>
</g>
<g clip-path="url(#clip-1)">
<path fill="none" stroke-width="3.19602" stroke-linecap="round" stroke-linejoin="round" stroke="rgb(10.545349%, 9.913635%, 9.561157%)" stroke-opacity="0.5" stroke-dasharray="0 168.75" stroke-miterlimit="10" d="M -3091.5625 -133.789062 C -1143.007812 666.679688 690.78125 1766.015625 2550.117188 2784.6875 C 4160.195312 3666.484375 5810.15625 4494.296875 7548.828125 5005.117188 C 7823.320312 5085.78125 8100.273438 5159.804688 8379.882812 5226.171875 C 9283.203125 5440.46875 10220.117188 5569.960938 11154.609375 5581.875 C 12341.210938 5597.148438 13524.609375 5422.578125 14632.109375 5000.117188 C 15512.8125 4664.296875 16335.195312 4179.296875 17151.484375 3694.882812 C 18489.609375 2900.195312 19808.90625 2106.601562 21342.304688 1953.203125 C 23934.882812 1695.195312 26746.601562 1517.1875 29263.085938 2202.5 " transform="matrix(0.1, 0, 0, -0.1, 0, 1518.75)"/>
</g>
<path fill="none" stroke-width="3.19602" stroke-linecap="round" stroke-linejoin="round" stroke="rgb(10.545349%, 9.913635%, 9.561157%)" stroke-opacity="0.5" stroke-dasharray="0 168.75" stroke-miterlimit="10" d="M 29163.398438 2065.390625 C 26657.890625 1400.195312 23843.90625 1627.1875 21256.601562 1899.296875 C 18794.296875 2159.414062 16891.601562 4048.515625 14576.914062 4903.007812 C 13948.398438 5135 13294.804688 5287.070312 12629.609375 5372.03125 C 11206.914062 5553.671875 9735.742188 5428.28125 8344.492188 5100.390625 C 6304.023438 4618.515625 4405.273438 3724.492188 2548.828125 2770.117188 C 2503.476562 2746.796875 2458.125 2723.398438 2412.773438 2700 C 602.695312 1765.585938 -1201.5625 755.117188 -3127.460938 25.820312 " transform="matrix(0.1, 0, 0, -0.1, 0, 1518.75)"/>
<path fill="none" stroke-width="6.39205" stroke-linecap="round" stroke-linejoin="round" stroke="rgb(10.545349%, 9.913635%, 9.561157%)" stroke-opacity="0.5" stroke-dasharray="0 168.75" stroke-miterlimit="10" d="M 29091.09375 2128.515625 C 26595.703125 1525 23798.90625 1743.789062 21224.296875 1977.8125 C 18777.890625 2202.5 16867.8125 3955.507812 14561.992188 4753.59375 C 13935.585938 4970.117188 13285.117188 5113.007812 12623.085938 5195.15625 C 11206.914062 5370.976562 9748.203125 5269.726562 8366.71875 4981.015625 C 6342.148438 4556.015625 4454.921875 3749.882812 2603.085938 2868.59375 C 2557.8125 2847.109375 2512.578125 2825.507812 2467.304688 2803.90625 C 661.796875 1939.804688 -1147.890625 969.6875 -3066.796875 262.5 " transform="matrix(0.1, 0, 0, -0.1, 0, 1518.75)"/>
<path fill="none" stroke-width="9.58807" stroke-linecap="round" stroke-linejoin="round" stroke="rgb(10.545349%, 9.913635%, 9.561157%)" stroke-opacity="0.5" stroke-dasharray="0 168.75" stroke-miterlimit="10" d="M 29018.90625 2191.484375 C 26533.398438 1649.804688 23753.984375 1860.390625 21192.109375 2056.289062 C 18761.484375 2245.585938 16844.101562 3862.5 14546.992188 4604.101562 C 13922.8125 4805.3125 13275.390625 4938.789062 12616.601562 5018.28125 C 11206.992188 5188.320312 9760.664062 5111.09375 8388.945312 4861.71875 C 6380.234375 4493.59375 4504.570312 3775.390625 2657.34375 2967.109375 C 2612.1875 2947.304688 2566.992188 2927.5 2521.835938 2907.695312 C 720.9375 2114.101562 -1094.257812 1184.414062 -3006.09375 499.179688 " transform="matrix(0.1, 0, 0, -0.1, 0, 1518.75)"/>
<path fill="none" stroke-width="12.7841" stroke-linecap="round" stroke-linejoin="round" stroke="rgb(10.545349%, 9.913635%, 9.561157%)" stroke-opacity="0.5" stroke-dasharray="0 168.75" stroke-miterlimit="10" d="M 28946.601562 2254.609375 C 26471.210938 1774.609375 23708.984375 1976.992188 21159.804688 2134.804688 C 18745.117188 2288.59375 16820.3125 3769.492188 14531.992188 4454.609375 C 13910 4640.507812 13265.703125 4764.6875 12610.117188 4841.484375 C 11206.992188 5005.585938 9773.125 4952.5 8411.132812 4742.304688 C 6418.359375 4431.09375 4554.21875 3800.898438 2711.5625 3065.585938 C 2666.523438 3047.617188 2621.445312 3029.609375 2576.367188 3011.484375 C 780.039062 2288.28125 -1040.585938 1398.984375 -2945.390625 735.898438 " transform="matrix(0.1, 0, 0, -0.1, 0, 1518.75)"/>
<path fill="none" stroke-width="15.9801" stroke-linecap="round" stroke-linejoin="round" stroke="rgb(10.545349%, 9.913635%, 9.561157%)" stroke-opacity="0.5" stroke-dasharray="0 168.75" stroke-miterlimit="10" d="M 28874.296875 2317.617188 C 26408.984375 1899.414062 23664.101562 2093.59375 21127.617188 2213.28125 C 18728.710938 2331.71875 16796.601562 3676.601562 14517.109375 4305.195312 C 13897.1875 4475.703125 13256.015625 4590.585938 12603.710938 4664.609375 C 11207.109375 4823.007812 9785.585938 4793.90625 8433.359375 4623.007812 C 6456.484375 4368.710938 4603.828125 3826.40625 2765.820312 3164.101562 C 2720.859375 3147.890625 2675.898438 3131.71875 2630.898438 3115.390625 C 839.179688 2462.617188 -986.953125 1613.59375 -2884.726562 972.617188 " transform="matrix(0.1, 0, 0, -0.1, 0, 1518.75)"/>
<path fill="none" stroke-width="19.1761" stroke-linecap="round" stroke-linejoin="round" stroke="rgb(10.545349%, 9.913635%, 9.561157%)" stroke-opacity="0.5" stroke-dasharray="0 168.75" stroke-miterlimit="10" d="M 28801.992188 2380.703125 C 26346.71875 2024.21875 23619.101562 2210.195312 21095.3125 2291.796875 C 18712.304688 2374.804688 16772.8125 3583.59375 14502.109375 4155.703125 C 13884.296875 4310.78125 13246.289062 4416.484375 12597.1875 4487.695312 C 11207.109375 4640.3125 9798.046875 4635.390625 8455.585938 4503.59375 C 6494.609375 4306.289062 4653.476562 3851.914062 2820.078125 3262.617188 C 2775.195312 3248.203125 2730.3125 3233.710938 2685.429688 3219.21875 C 898.28125 2636.796875 -933.28125 1828.28125 -2824.023438 1209.296875 " transform="matrix(0.1, 0, 0, -0.1, 0, 1518.75)"/>
<path fill="none" stroke-width="22.3722" stroke-linecap="round" stroke-linejoin="round" stroke="rgb(10.545349%, 9.913635%, 9.561157%)" stroke-opacity="0.5" stroke-dasharray="0 168.75" stroke-miterlimit="10" d="M 28729.804688 2443.710938 C 26284.492188 2148.90625 23574.21875 2326.796875 21063.007812 2370.390625 C 18695.78125 2417.890625 16749.101562 3490.585938 14487.109375 4006.210938 C 13871.484375 4146.015625 13236.484375 4242.304688 12590.703125 4310.898438 C 11207.1875 4457.617188 9810.507812 4476.796875 8477.8125 4384.21875 C 6532.734375 4243.789062 4703.125 3877.304688 2874.335938 3361.09375 C 2829.53125 3348.515625 2784.765625 3335.78125 2739.960938 3323.007812 C 957.421875 2811.015625 -879.609375 2042.890625 -2763.359375 1446.015625 " transform="matrix(0.1, 0, 0, -0.1, 0, 1518.75)"/>
<path fill="none" stroke-width="25.5682" stroke-linecap="round" stroke-linejoin="round" stroke="rgb(10.545349%, 9.913635%, 9.561157%)" stroke-opacity="0.5" stroke-dasharray="0 168.75" stroke-miterlimit="10" d="M 28657.5 2506.796875 C 26222.1875 2273.710938 23529.296875 2443.398438 21030.78125 2448.90625 C 18679.414062 2460.898438 16725.390625 3397.617188 14472.1875 3856.796875 C 13858.710938 3981.210938 13226.796875 4068.203125 12584.21875 4133.984375 C 11207.1875 4274.882812 9822.96875 4318.203125 8500.039062 4264.882812 C 6570.859375 4181.40625 4752.773438 3902.8125 2928.554688 3459.609375 C 2883.90625 3448.789062 2839.21875 3437.890625 2794.492188 3426.914062 C 1016.523438 2985.3125 -825.976562 2257.5 -2702.65625 1682.695312 " transform="matrix(0.1, 0, 0, -0.1, 0, 1518.75)"/>
<path fill="none" stroke-width="28.7642" stroke-linecap="round" stroke-linejoin="round" stroke="rgb(10.545349%, 9.913635%, 9.561157%)" stroke-opacity="0.5" stroke-dasharray="0 168.75" stroke-miterlimit="10" d="M 28585.195312 2569.804688 C 26160 2398.515625 23484.296875 2560 20998.515625 2527.382812 C 18663.007812 2503.984375 16701.601562 3304.609375 14457.1875 3707.304688 C 13845.898438 3816.289062 13217.109375 3894.101562 12577.8125 3957.1875 C 11207.1875 4092.304688 9835.429688 4159.609375 8522.226562 4145.507812 C 6608.945312 4118.984375 4802.382812 3928.28125 2982.8125 3558.085938 C 2938.242188 3549.101562 2893.632812 3539.882812 2849.023438 3530.703125 C 1075.664062 3159.492188 -772.304688 2472.1875 -2641.953125 1919.414062 " transform="matrix(0.1, 0, 0, -0.1, 0, 1518.75)"/>
<path fill="none" stroke-width="31.9602" stroke-linecap="round" stroke-linejoin="round" stroke="rgb(10.545349%, 9.913635%, 9.561157%)" stroke-opacity="0.5" stroke-dasharray="0 168.75" stroke-miterlimit="10" d="M 28513.007812 2632.890625 C 26097.8125 2523.28125 23439.414062 2676.601562 20966.289062 2605.898438 C 18646.601562 2547.109375 16677.890625 3211.71875 14442.1875 3557.890625 C 13833.085938 3651.484375 13207.382812 3719.882812 12571.289062 3780.3125 C 11207.304688 3909.609375 9847.890625 4001.015625 8544.453125 4026.210938 C 6647.070312 4056.484375 4852.03125 3953.789062 3037.03125 3656.601562 C 2992.578125 3649.414062 2948.085938 3641.992188 2903.554688 3634.609375 C 1134.765625 3333.789062 -718.671875 2686.796875 -2581.289062 2156.09375 " transform="matrix(0.1, 0, 0, -0.1, 0, 1518.75)"/>
<path fill="none" stroke-width="35.1563" stroke-linecap="round" stroke-linejoin="round" stroke="rgb(10.545349%, 9.913635%, 9.561157%)" stroke-opacity="0.5" stroke-dasharray="0 168.75" stroke-miterlimit="10" d="M 28440.703125 2695.898438 C 26035.507812 2648.085938 23394.414062 2793.085938 20933.984375 2684.414062 C 18630.195312 2590.195312 16654.101562 3118.710938 14427.304688 3408.398438 C 13820.3125 3486.71875 13197.695312 3545.78125 12564.804688 3603.515625 C 11207.304688 3726.914062 9860.351562 3842.382812 8566.679688 3906.796875 C 6685.195312 3994.101562 4901.679688 3979.296875 3091.289062 3755.117188 C 3046.914062 3749.609375 3002.5 3744.101562 2958.085938 3738.398438 C 1193.90625 3508.007812 -665 2901.40625 -2520.585938 2392.8125 " transform="matrix(0.1, 0, 0, -0.1, 0, 1518.75)"/>
<path fill="none" stroke-width="38.3523" stroke-linecap="round" stroke-linejoin="round" stroke="rgb(10.545349%, 9.913635%, 9.561157%)" stroke-opacity="0.5" stroke-dasharray="0 168.75" stroke-miterlimit="10" d="M 28368.398438 2758.984375 C 25973.28125 2772.890625 23349.492188 2909.6875 20901.796875 2763.007812 C 18613.789062 2633.28125 16630.390625 3025.703125 14412.304688 3258.90625 C 13807.5 3321.796875 13188.007812 3371.71875 12558.398438 3426.601562 C 11207.382812 3544.21875 9872.8125 3683.789062 8588.90625 3787.5 C 6723.320312 3931.601562 4951.328125 4004.6875 3145.546875 3853.59375 C 3101.25 3849.882812 3056.953125 3846.09375 3012.617188 3842.1875 C 1253.007812 3682.1875 -611.367188 3116.09375 -2459.921875 2629.492188 " transform="matrix(0.1, 0, 0, -0.1, 0, 1518.75)"/>
<path fill="none" stroke-width="41.5483" stroke-linecap="round" stroke-linejoin="round" stroke="rgb(10.545349%, 9.913635%, 9.561157%)" stroke-opacity="0.5" stroke-dasharray="0 168.75" stroke-miterlimit="10" d="M 28296.09375 2822.109375 C 25911.09375 2897.617188 23304.492188 3026.289062 20869.492188 2841.484375 C 18597.382812 2676.289062 16606.601562 2932.695312 14397.304688 3109.492188 C 13794.6875 3156.992188 13178.28125 3197.617188 12551.914062 3249.804688 C 11207.382812 3361.601562 9885.273438 3525.3125 8611.09375 3668.085938 C 6761.40625 3869.21875 5000.976562 4030.195312 3199.804688 3952.109375 C 3155.625 3950.195312 3111.40625 3948.203125 3067.148438 3946.09375 C 1312.148438 3856.484375 -557.695312 3330.703125 -2399.21875 2866.210938 " transform="matrix(0.1, 0, 0, -0.1, 0, 1518.75)"/>
<path fill="none" stroke-width="44.7443" stroke-linecap="round" stroke-linejoin="round" stroke="rgb(10.545349%, 9.913635%, 9.561157%)" stroke-opacity="0.5" stroke-dasharray="0 168.75" stroke-miterlimit="10" d="M 28223.90625 2885.117188 C 25848.789062 3022.382812 23259.609375 3142.890625 20837.304688 2920 C 18580.898438 2719.414062 16582.890625 2839.6875 14382.382812 2960 C 13781.914062 2992.1875 13168.515625 3023.398438 12545.390625 3072.890625 C 11207.5 3178.90625 9897.734375 3366.71875 8633.320312 3548.710938 C 6799.53125 3806.796875 5050.585938 4055.703125 3254.023438 4050.585938 C 3209.960938 4050.507812 3165.820312 4050.3125 3121.679688 4049.882812 C 1371.25 4030.703125 -504.0625 3545.3125 -2338.515625 3102.890625 " transform="matrix(0.1, 0, 0, -0.1, 0, 1518.75)"/>
<path fill="none" stroke-width="47.9403" stroke-linecap="round" stroke-linejoin="round" stroke="rgb(10.545349%, 9.913635%, 9.561157%)" stroke-opacity="0.5" stroke-dasharray="0 168.75" stroke-miterlimit="10" d="M 28151.601562 2948.203125 C 25786.601562 3147.1875 23214.609375 3259.492188 20805 2998.515625 C 18564.492188 2762.5 16559.101562 2746.796875 14367.382812 2810.507812 C 13769.101562 2827.304688 13158.789062 2849.296875 12538.90625 2896.015625 C 11207.5 2996.210938 9910.195312 3208.085938 8655.546875 3429.414062 C 6837.65625 3744.296875 5100.234375 4081.210938 3308.28125 4149.101562 C 3264.296875 4150.78125 3220.273438 4152.304688 3176.210938 4153.710938 C 1430.351562 4205 -450.390625 3760 -2277.851562 3339.609375 " transform="matrix(0.1, 0, 0, -0.1, 0, 1518.75)"/>
<path fill="none" stroke-width="51.1364" stroke-linecap="round" stroke-linejoin="round" stroke="rgb(10.545349%, 9.913635%, 9.561157%)" stroke-opacity="0.5" stroke-dasharray="0 168.75" stroke-miterlimit="10" d="M 28079.296875 3011.210938 C 25724.296875 3271.992188 23169.6875 3376.09375 20772.8125 3076.992188 C 18548.085938 2805.585938 16535.390625 2653.789062 14352.382812 2661.09375 C 13756.289062 2662.5 13149.101562 2675.195312 12532.5 2719.21875 C 11207.5 2813.515625 9922.65625 3049.492188 8677.773438 3310 C 6875.78125 3681.914062 5149.882812 4106.601562 3362.539062 4247.617188 C 3318.632812 4251.09375 3274.726562 4254.414062 3230.742188 4257.617188 C 1489.492188 4379.21875 -396.71875 3974.609375 -2217.148438 3576.289062 " transform="matrix(0.1, 0, 0, -0.1, 0, 1518.75)"/>
<path fill="none" stroke-width="54.3324" stroke-linecap="round" stroke-linejoin="round" stroke="rgb(10.545349%, 9.913635%, 9.561157%)" stroke-opacity="0.5" stroke-dasharray="0 168.75" stroke-miterlimit="10" d="M 28006.992188 3074.296875 C 25662.109375 3396.796875 23124.804688 3492.695312 20740.507812 3155.507812 C 18531.71875 2848.710938 16511.71875 2560.78125 14337.382812 2511.601562 C 13743.515625 2497.695312 13139.414062 2501.09375 12526.015625 2542.304688 C 11207.617188 2630.898438 9935.117188 2890.898438 8699.960938 3190.703125 C 6913.90625 3619.414062 5199.53125 4132.109375 3416.757812 4346.09375 C 3372.96875 4351.40625 3329.140625 4356.484375 3285.273438 4361.40625 C 1548.632812 4553.398438 -343.085938 4189.21875 -2156.484375 3813.007812 " transform="matrix(0.1, 0, 0, -0.1, 0, 1518.75)"/>
<path fill="none" stroke-width="57.5284" stroke-linecap="round" stroke-linejoin="round" stroke="rgb(10.545349%, 9.913635%, 9.561157%)" stroke-opacity="0.5" stroke-dasharray="0 168.75" stroke-miterlimit="10" d="M 27934.804688 3137.304688 C 25599.882812 3521.601562 23079.804688 3609.296875 20708.28125 3234.101562 C 18515.3125 2891.71875 16487.890625 2467.8125 14322.5 2362.109375 C 13730.703125 2332.8125 13129.6875 2326.914062 12519.492188 2365.507812 C 11207.617188 2448.203125 9947.578125 2732.304688 8722.1875 3071.289062 C 6951.992188 3556.992188 5249.140625 4157.617188 3471.015625 4444.609375 C 3427.304688 4451.601562 3383.59375 4458.515625 3339.804688 4465.3125 C 1607.734375 4727.695312 -289.414062 4403.90625 -2095.78125 4049.6875 " transform="matrix(0.1, 0, 0, -0.1, 0, 1518.75)"/>
<path fill="none" stroke-width="60.7244" stroke-linecap="round" stroke-linejoin="round" stroke="rgb(10.545349%, 9.913635%, 9.561157%)" stroke-opacity="0.5" stroke-dasharray="0 168.75" stroke-miterlimit="10" d="M 27862.5 3200.390625 C 25537.617188 3646.289062 23034.882812 3725.898438 20676.015625 3312.617188 C 18498.90625 2934.804688 16464.21875 2374.804688 14307.5 2212.695312 C 13717.890625 2168.007812 13120 2152.8125 12513.007812 2188.59375 C 11207.695312 2265.507812 9960.039062 2573.710938 8744.414062 2951.914062 C 6990.117188 3494.609375 5298.789062 4183.085938 3525.273438 4543.085938 C 3481.679688 4551.914062 3438.007812 4560.585938 3394.335938 4569.101562 C 1666.875 4901.914062 -235.78125 4618.515625 -2035.078125 4286.40625 " transform="matrix(0.1, 0, 0, -0.1, 0, 1518.75)"/>
<path fill="none" stroke-width="63.9205" stroke-linecap="round" stroke-linejoin="round" stroke="rgb(10.545349%, 9.913635%, 9.561157%)" stroke-opacity="0.5" stroke-dasharray="0 168.75" stroke-miterlimit="10" d="M 27790.195312 3263.398438 C 25475.390625 3771.09375 22989.882812 3842.5 20643.710938 3391.09375 C 18482.382812 2977.890625 16440.390625 2281.914062 14292.5 2063.203125 C 13705.117188 2003.203125 13110.195312 1978.710938 12506.601562 2011.796875 C 11207.695312 2082.8125 9972.460938 2415.117188 8766.640625 2832.617188 C 7028.242188 3432.109375 5348.4375 4208.59375 3579.492188 4641.484375 C 3536.015625 4652.1875 3492.460938 4662.695312 3448.867188 4672.890625 C 1725.976562 5076.210938 -182.109375 4833.085938 -1974.414062 4523.085938 " transform="matrix(0.1, 0, 0, -0.1, 0, 1518.75)"/>
<path fill="none" stroke-width="67.1165" stroke-linecap="round" stroke-linejoin="round" stroke="rgb(10.545349%, 9.913635%, 9.561157%)" stroke-opacity="0.5" stroke-dasharray="0 168.75" stroke-miterlimit="10" d="M 27718.007812 3326.484375 C 25413.085938 3895.898438 22945 3959.101562 20611.484375 3469.609375 C 18466.015625 3021.015625 16416.71875 2188.90625 14277.617188 1913.789062 C 13692.304688 1838.398438 13100.507812 1804.609375 12500.117188 1834.882812 C 11207.8125 1900.195312 9984.921875 2256.601562 8788.867188 2713.203125 C 7066.367188 3369.6875 5398.085938 4233.984375 3633.75 4740 C 3590.351562 4752.5 3546.914062 4764.6875 3503.398438 4776.796875 C 1785.117188 5250.390625 -128.476562 5047.8125 -1913.710938 4759.804688 " transform="matrix(0.1, 0, 0, -0.1, 0, 1518.75)"/>
<path fill="none" stroke-width="70.3125" stroke-linecap="round" stroke-linejoin="round" stroke="rgb(10.545349%, 9.913635%, 9.561157%)" stroke-opacity="0.5" stroke-dasharray="0 168.75" stroke-miterlimit="10" d="M 27645.703125 3389.609375 C 25350.898438 4020.703125 22900 4075.703125 20579.21875 3548.085938 C 17866.71875 2931.484375 15272.382812 1529.609375 12493.59375 1658.085938 C 9312.578125 1805.117188 6593.085938 3916.992188 3557.929688 4880.585938 C 1844.21875 5424.648438 -74.804688 5262.421875 -1853.046875 4996.484375 " transform="matrix(0.1, 0, 0, -0.1, 0, 1518.75)"/>
<path fill="none" stroke-width="67.1165" stroke-linecap="round" stroke-linejoin="round" stroke="rgb(10.545349%, 9.913635%, 9.561157%)" stroke-opacity="0.5" stroke-dasharray="0 168.75" stroke-miterlimit="10" d="M -1831.171875 5022.617188 C -46.875 5275.078125 1864.492188 5391.484375 3580.78125 4836.289062 C 4829.375 4432.617188 6027.578125 3845 7230.039062 3294.882812 C 8952.03125 2506.484375 10680.390625 1793.984375 12555.3125 1703.515625 C 13231.484375 1670.898438 13896.484375 1720.585938 14553.789062 1817.8125 C 16329.609375 2079.414062 18019.609375 2685.390625 19788.203125 3127.5 C 20061.40625 3195.898438 20335.585938 3259.492188 20611.015625 3315.898438 C 22288.59375 3659.414062 24034.882812 3732.382812 25741.09375 3518.398438 C 26400 3435.78125 27053.28125 3310.3125 27695 3142.1875 " transform="matrix(0.1, 0, 0, -0.1, 0, 1518.75)"/>
<path fill="none" stroke-width="63.9205" stroke-linecap="round" stroke-linejoin="round" stroke="rgb(10.545349%, 9.913635%, 9.561157%)" stroke-opacity="0.5" stroke-dasharray="0 168.75" stroke-miterlimit="10" d="M -1809.375 5048.710938 C -18.90625 5287.734375 1884.765625 5358.28125 3603.632812 4792.109375 C 4853.554688 4380.507812 6055.976562 3795.390625 7266.25 3262.890625 C 8997.929688 2499.882812 10740.898438 1843.203125 12616.914062 1748.984375 C 13294.21875 1714.882812 13960 1755.195312 14616.914062 1833.398438 C 16393.59375 2042.890625 18046.289062 2525 19818.59375 2916.09375 C 20092.1875 2976.71875 20366.796875 3033.28125 20642.8125 3083.59375 C 22323.59375 3390.117188 24073.984375 3458.710938 25784.21875 3254.101562 C 26444.804688 3175.117188 27100.117188 3055.3125 27744.296875 2894.882812 " transform="matrix(0.1, 0, 0, -0.1, 0, 1518.75)"/>
<path fill="none" stroke-width="60.7244" stroke-linecap="round" stroke-linejoin="round" stroke="rgb(10.545349%, 9.913635%, 9.561157%)" stroke-opacity="0.5" stroke-dasharray="0 168.75" stroke-miterlimit="10" d="M -1787.539062 5074.804688 C 9.0625 5300.390625 1905 5325.117188 3626.523438 4747.8125 C 4877.734375 4328.515625 6084.375 3745.703125 7302.460938 3230.78125 C 9043.828125 2493.398438 10801.484375 1892.5 12678.515625 1794.492188 C 13356.992188 1758.984375 14023.398438 1789.804688 14680 1849.101562 C 16457.617188 2006.289062 18072.890625 2364.492188 19848.984375 2704.6875 C 20122.890625 2757.382812 20398.085938 2807.109375 20674.609375 2851.289062 C 22358.59375 3120.703125 24113.203125 3185 25827.1875 2989.804688 C 26489.609375 2914.414062 27146.796875 2800.3125 27793.59375 2647.617188 " transform="matrix(0.1, 0, 0, -0.1, 0, 1518.75)"/>
<path fill="none" stroke-width="57.5284" stroke-linecap="round" stroke-linejoin="round" stroke="rgb(10.545349%, 9.913635%, 9.561157%)" stroke-opacity="0.5" stroke-dasharray="0 168.75" stroke-miterlimit="10" d="M -1765.703125 5100.898438 C 36.992188 5313.046875 1925.273438 5291.953125 3649.375 4703.59375 C 4901.875 4276.40625 6112.773438 3696.015625 7338.671875 3198.789062 C 9089.6875 2486.796875 10861.992188 1941.796875 12740.117188 1840 C 13419.6875 1803.007812 14086.914062 1824.414062 14743.085938 1864.6875 C 16521.484375 1969.804688 18099.609375 2204.101562 19879.296875 2493.28125 C 20153.710938 2538.203125 20429.296875 2580.898438 20706.40625 2618.984375 C 22393.515625 2851.40625 24152.304688 2911.289062 25870.3125 2725.390625 C 26534.414062 2653.710938 27193.59375 2545.3125 27842.890625 2400.3125 " transform="matrix(0.1, 0, 0, -0.1, 0, 1518.75)"/>
<path fill="none" stroke-width="54.3324" stroke-linecap="round" stroke-linejoin="round" stroke="rgb(10.545349%, 9.913635%, 9.561157%)" stroke-opacity="0.5" stroke-dasharray="0 168.75" stroke-miterlimit="10" d="M -1743.867188 5126.992188 C 64.960938 5325.703125 1945.546875 5258.789062 3672.226562 4659.296875 C 4926.054688 4224.296875 6141.171875 3646.40625 7374.921875 3166.71875 C 9135.585938 2480.195312 10922.617188 1991.09375 12801.71875 1885.507812 C 13482.382812 1847.109375 14150.390625 1858.984375 14806.210938 1880.3125 C 16585.507812 1933.203125 18126.289062 2043.710938 19909.6875 2281.914062 C 20184.414062 2318.984375 20460.585938 2354.6875 20738.203125 2386.796875 C 22428.515625 2582.109375 24191.484375 2637.5 25913.398438 2461.09375 C 26579.21875 2393.007812 27240.390625 2290.195312 27892.1875 2153.007812 " transform="matrix(0.1, 0, 0, -0.1, 0, 1518.75)"/>
<path fill="none" stroke-width="51.1364" stroke-linecap="round" stroke-linejoin="round" stroke="rgb(10.545349%, 9.913635%, 9.561157%)" stroke-opacity="0.5" stroke-dasharray="0 168.75" stroke-miterlimit="10" d="M -1722.03125 5153.085938 C 92.929688 5338.359375 1965.78125 5225.625 3695.117188 4615.117188 C 4950.234375 4172.304688 6169.570312 3596.71875 7411.132812 3134.6875 C 9181.445312 2473.710938 10983.085938 2040.390625 12863.398438 1931.015625 C 13545.195312 1891.09375 14213.90625 1893.59375 14869.296875 1895.898438 C 16649.492188 1896.71875 18153.007812 1883.28125 19940.117188 2070.507812 C 20215.195312 2099.804688 20491.796875 2128.515625 20769.882812 2154.492188 C 22463.515625 2312.695312 24230.585938 2363.789062 25956.40625 2196.796875 C 26623.90625 2132.304688 27287.109375 2035.195312 27941.484375 1905.585938 " transform="matrix(0.1, 0, 0, -0.1, 0, 1518.75)"/>
<path fill="none" stroke-width="47.9403" stroke-linecap="round" stroke-linejoin="round" stroke="rgb(10.545349%, 9.913635%, 9.561157%)" stroke-opacity="0.5" stroke-dasharray="0 168.75" stroke-miterlimit="10" d="M -1700.195312 5179.21875 C 120.859375 5351.015625 1986.054688 5192.421875 3717.96875 4570.78125 C 4974.414062 4120.195312 6197.96875 3546.992188 7447.34375 3102.695312 C 9227.34375 2467.109375 11043.710938 2089.6875 12925 1976.40625 C 13607.890625 1935.195312 14277.382812 1928.203125 14932.382812 1911.484375 C 16713.515625 1860.117188 18179.609375 1722.890625 19970.390625 1859.101562 C 20245.898438 1880.585938 20523.007812 1902.382812 20801.71875 1922.1875 C 22498.515625 2043.398438 24269.804688 2090.117188 25999.492188 1932.5 C 26668.710938 1871.601562 27333.90625 1780.195312 27990.78125 1658.28125 " transform="matrix(0.1, 0, 0, -0.1, 0, 1518.75)"/>
<path fill="none" stroke-width="44.7443" stroke-linecap="round" stroke-linejoin="round" stroke="rgb(10.545349%, 9.913635%, 9.561157%)" stroke-opacity="0.5" stroke-dasharray="0 168.75" stroke-miterlimit="10" d="M -1678.398438 5205.3125 C 148.828125 5363.671875 2006.328125 5159.296875 3740.820312 4526.601562 C 4998.554688 4068.203125 6226.367188 3497.382812 7483.554688 3070.585938 C 9273.242188 2460.507812 11104.21875 2138.984375 12986.601562 2021.914062 C 13670.585938 1979.21875 14340.898438 1962.8125 14995.507812 1927.109375 C 16777.382812 1823.59375 18206.289062 1562.382812 20000.78125 1647.695312 C 20276.71875 1661.40625 20554.296875 1676.210938 20833.515625 1689.882812 C 22533.398438 1774.101562 24308.90625 1816.40625 26042.617188 1668.203125 C 26713.515625 1611.015625 27380.703125 1525.195312 28040.117188 1411.015625 " transform="matrix(0.1, 0, 0, -0.1, 0, 1518.75)"/>
<path fill="none" stroke-width="41.5483" stroke-linecap="round" stroke-linejoin="round" stroke="rgb(10.545349%, 9.913635%, 9.561157%)" stroke-opacity="0.5" stroke-dasharray="0 168.75" stroke-miterlimit="10" d="M -1656.5625 5231.40625 C 176.757812 5376.328125 2026.601562 5126.09375 3763.671875 4482.304688 C 5022.734375 4016.09375 6254.765625 3447.695312 7519.804688 3038.59375 C 9319.101562 2453.984375 11164.804688 2188.28125 13048.203125 2067.382812 C 13733.398438 2023.28125 14404.414062 1997.382812 15058.59375 1942.695312 C 16841.40625 1786.992188 18233.007812 1401.992188 20031.09375 1436.289062 C 20307.5 1442.109375 20585.507812 1450 20865.3125 1457.695312 C 22568.398438 1504.6875 24348.085938 1542.695312 26085.585938 1403.90625 C 26758.28125 1350.3125 27427.382812 1270.195312 28089.414062 1163.710938 " transform="matrix(0.1, 0, 0, -0.1, 0, 1518.75)"/>
<path fill="none" stroke-width="38.3523" stroke-linecap="round" stroke-linejoin="round" stroke="rgb(10.545349%, 9.913635%, 9.561157%)" stroke-opacity="0.5" stroke-dasharray="0 168.75" stroke-miterlimit="10" d="M -1634.726562 5257.5 C 204.726562 5388.984375 2046.875 5092.890625 3786.5625 4438.085938 C 5046.914062 3964.101562 6283.164062 3398.007812 7556.015625 3006.484375 C 9365 2447.382812 11225.390625 2237.5 13109.882812 2112.890625 C 13796.09375 2067.304688 14467.8125 2031.992188 15121.71875 1958.28125 C 16905.390625 1750.507812 18259.6875 1241.601562 20061.484375 1224.882812 C 20338.203125 1222.890625 20616.796875 1223.789062 20897.109375 1225.390625 C 22603.398438 1235.390625 24387.304688 1268.984375 26128.710938 1139.609375 C 26803.085938 1089.609375 27474.21875 1015.195312 28138.710938 916.289062 " transform="matrix(0.1, 0, 0, -0.1, 0, 1518.75)"/>
<path fill="none" stroke-width="35.1563" stroke-linecap="round" stroke-linejoin="round" stroke="rgb(10.545349%, 9.913635%, 9.561157%)" stroke-opacity="0.5" stroke-dasharray="0 168.75" stroke-miterlimit="10" d="M -1612.890625 5283.59375 C 232.695312 5401.640625 2067.109375 5059.6875 3809.414062 4393.789062 C 5071.09375 3911.992188 6311.5625 3348.398438 7592.226562 2974.492188 C 9410.859375 2440.78125 11285.898438 2286.796875 13171.484375 2158.398438 C 13858.90625 2111.40625 14531.289062 2066.71875 15184.804688 1973.90625 C 16969.296875 1713.90625 18286.289062 1081.210938 20091.914062 1013.515625 C 20368.984375 1003.710938 20648.007812 997.617188 20928.90625 993.085938 C 22638.398438 966.09375 24426.40625 995.195312 26171.796875 875.195312 C 26847.890625 828.90625 27521.015625 760.117188 28188.007812 668.984375 " transform="matrix(0.1, 0, 0, -0.1, 0, 1518.75)"/>
<path fill="none" stroke-width="31.9602" stroke-linecap="round" stroke-linejoin="round" stroke="rgb(10.545349%, 9.913635%, 9.561157%)" stroke-opacity="0.5" stroke-dasharray="0 168.75" stroke-miterlimit="10" d="M -1591.054688 5309.6875 C 260.625 5414.335938 2087.382812 5026.601562 3832.265625 4349.609375 C 5095.234375 3860 6339.960938 3298.710938 7628.476562 2942.382812 C 9456.757812 2434.296875 11346.484375 2336.09375 13233.085938 2203.789062 C 13921.601562 2155.390625 14594.804688 2101.289062 15247.890625 1989.492188 C 17033.28125 1677.382812 18313.007812 920.703125 20122.1875 802.109375 C 20399.6875 784.492188 20679.21875 771.40625 20960.703125 760.898438 C 22673.28125 696.679688 24465.585938 721.484375 26214.804688 610.898438 C 26892.617188 568.203125 27567.8125 505.117188 28237.382812 421.679688 " transform="matrix(0.1, 0, 0, -0.1, 0, 1518.75)"/>
<path fill="none" stroke-width="28.7642" stroke-linecap="round" stroke-linejoin="round" stroke="rgb(10.545349%, 9.913635%, 9.561157%)" stroke-opacity="0.5" stroke-dasharray="0 168.75" stroke-miterlimit="10" d="M -1569.21875 5335.78125 C 288.59375 5426.992188 2107.65625 4993.398438 3855.15625 4305.3125 C 5119.414062 3807.890625 6368.359375 3248.984375 7664.6875 2910.390625 C 9502.65625 2427.695312 11406.992188 2385.390625 13294.6875 2249.296875 C 13984.296875 2199.492188 14658.28125 2135.898438 15311.015625 2005.117188 C 17097.304688 1640.78125 18339.6875 760.3125 20152.617188 590.703125 C 20430.507812 565.3125 20710.507812 545.3125 20992.382812 528.59375 C 22708.28125 427.382812 24504.6875 447.8125 26257.890625 346.601562 C 26937.382812 307.5 27614.492188 250.117188 28286.71875 174.414062 " transform="matrix(0.1, 0, 0, -0.1, 0, 1518.75)"/>
<g clip-path="url(#clip-2)">
<path fill="none" stroke-width="25.5682" stroke-linecap="round" stroke-linejoin="round" stroke="rgb(10.545349%, 9.913635%, 9.561157%)" stroke-opacity="0.5" stroke-dasharray="0 168.75" stroke-miterlimit="10" d="M -1547.382812 5361.914062 C 316.523438 5439.648438 2127.929688 4960.195312 3878.007812 4261.09375 C 5143.59375 3755.78125 6396.757812 3199.414062 7700.898438 2878.398438 C 9548.515625 2421.09375 11467.617188 2434.6875 13356.40625 2294.804688 C 14047.109375 2243.515625 14721.796875 2170.507812 15374.101562 2020.78125 C 17161.289062 1604.296875 18366.289062 599.882812 20183.007812 379.296875 C 20461.210938 346.015625 20741.71875 319.101562 21024.21875 296.289062 C 22743.28125 158.007812 24543.90625 174.101562 26301.015625 82.304688 C 26982.1875 46.796875 27661.289062 -4.882812 28336.015625 -72.890625 " transform="matrix(0.1, 0, 0, -0.1, 0, 1518.75)"/>
</g>
<g clip-path="url(#clip-3)">
<path fill="none" stroke-width="22.3722" stroke-linecap="round" stroke-linejoin="round" stroke="rgb(10.545349%, 9.913635%, 9.561157%)" stroke-opacity="0.5" stroke-dasharray="0 168.75" stroke-miterlimit="10" d="M -1525.546875 5388.007812 C 344.492188 5452.304688 2148.164062 4927.109375 3900.859375 4216.796875 C 5167.773438 3703.789062 6425.15625 3149.6875 7737.109375 2846.289062 C 9594.414062 2414.609375 11528.085938 2483.984375 13418.007812 2340.3125 C 14109.804688 2287.5 14785.3125 2205.117188 15437.1875 2036.40625 C 17225.195312 1567.695312 18393.007812 439.492188 20213.28125 167.890625 C 20491.992188 126.796875 20773.007812 92.890625 21056.015625 63.984375 C 22778.28125 -111.289062 24583.007812 -99.609375 26343.984375 -181.992188 C 27026.992188 -213.789062 27708.085938 -259.882812 28385.3125 -320.3125 " transform="matrix(0.1, 0, 0, -0.1, 0, 1518.75)"/>
</g>
<g clip-path="url(#clip-4)">
<path fill="none" stroke-width="19.1761" stroke-linecap="round" stroke-linejoin="round" stroke="rgb(10.545349%, 9.913635%, 9.561157%)" stroke-opacity="0.5" stroke-dasharray="0 168.75" stroke-miterlimit="10" d="M -1503.710938 5414.101562 C 372.460938 5464.960938 2168.4375 4893.90625 3923.75 4172.617188 C 5191.953125 3651.71875 6453.554688 3100 7773.359375 2814.296875 C 9640.273438 2408.007812 11588.710938 2533.28125 13479.609375 2385.78125 C 14172.5 2331.601562 14848.710938 2239.6875 15500.3125 2051.992188 C 17289.21875 1531.210938 18419.6875 279.101562 20243.710938 -43.515625 C 20522.695312 -92.382812 20804.21875 -133.320312 21087.8125 -168.203125 C 22813.203125 -380.585938 24622.1875 -373.320312 26387.109375 -446.289062 C 27071.796875 -474.492188 27754.804688 -515 28434.609375 -567.617188 " transform="matrix(0.1, 0, 0, -0.1, 0, 1518.75)"/>
</g>
<g clip-path="url(#clip-5)">
<path fill="none" stroke-width="15.9801" stroke-linecap="round" stroke-linejoin="round" stroke="rgb(10.545349%, 9.913635%, 9.561157%)" stroke-opacity="0.5" stroke-dasharray="0 168.75" stroke-miterlimit="10" d="M -1481.914062 5440.195312 C 400.390625 5477.617188 2188.710938 4860.703125 3946.601562 4128.28125 C 5216.09375 3599.6875 6481.953125 3050.3125 7809.570312 2782.1875 C 9686.171875 2401.40625 11649.21875 2582.5 13541.210938 2431.289062 C 14235.3125 2375.585938 14912.1875 2274.296875 15563.398438 2067.617188 C 17353.203125 1494.609375 18446.40625 118.59375 20273.984375 -254.882812 C 20553.515625 -311.601562 20835.507812 -359.492188 21119.609375 -400.507812 C 22848.203125 -650 24661.289062 -647.109375 26430.195312 -710.585938 C 27116.601562 -735.195312 27801.601562 -770 28483.90625 -814.882812 " transform="matrix(0.1, 0, 0, -0.1, 0, 1518.75)"/>
</g>
<g clip-path="url(#clip-6)">
<path fill="none" stroke-width="12.7841" stroke-linecap="round" stroke-linejoin="round" stroke="rgb(10.545349%, 9.913635%, 9.561157%)" stroke-opacity="0.5" stroke-dasharray="0 168.75" stroke-miterlimit="10" d="M -1460.078125 5466.328125 C 428.359375 5490.273438 2208.984375 4827.5 3969.453125 4084.101562 C 5240.273438 3547.617188 6510.3125 3000.703125 7845.78125 2750.195312 C 9732.03125 2394.882812 11709.804688 2631.796875 13602.8125 2476.71875 C 14298.007812 2419.6875 14975.703125 2308.90625 15626.484375 2083.203125 C 17417.109375 1458.085938 18473.007812 -41.796875 20304.414062 -466.289062 C 20584.21875 -530.820312 20866.71875 -585.703125 21151.40625 -632.8125 C 22883.203125 -919.296875 24700.507812 -920.820312 26473.203125 -974.882812 C 27161.289062 -995.898438 27848.398438 -1025 28533.203125 -1062.1875 " transform="matrix(0.1, 0, 0, -0.1, 0, 1518.75)"/>
</g>
<g clip-path="url(#clip-7)">
<path fill="none" stroke-width="9.58807" stroke-linecap="round" stroke-linejoin="round" stroke="rgb(10.545349%, 9.913635%, 9.561157%)" stroke-opacity="0.5" stroke-dasharray="0 168.75" stroke-miterlimit="10" d="M -1438.242188 5492.421875 C 456.289062 5502.929688 2229.257812 4794.414062 3992.34375 4039.804688 C 5264.453125 3495.585938 6538.710938 2951.015625 7881.992188 2718.203125 C 9777.929688 2388.28125 11770.3125 2681.09375 13664.492188 2522.1875 C 14360.703125 2463.710938 15039.21875 2343.515625 15689.609375 2098.789062 C 17481.09375 1421.484375 18499.6875 -202.1875 20334.804688 -677.695312 C 20615 -750 20897.890625 -811.914062 21183.085938 -865.117188 C 22918.203125 -1188.59375 24739.609375 -1194.492188 26516.289062 -1239.296875 C 27206.09375 -1256.601562 27895.117188 -1280 28582.5 -1309.492188 " transform="matrix(0.1, 0, 0, -0.1, 0, 1518.75)"/>
</g>
<g clip-path="url(#clip-8)">
<path fill="none" stroke-width="6.39205" stroke-linecap="round" stroke-linejoin="round" stroke="rgb(10.545349%, 9.913635%, 9.561157%)" stroke-opacity="0.5" stroke-dasharray="0 168.75" stroke-miterlimit="10" d="M -1416.40625 5518.515625 C 484.257812 5515.585938 2249.492188 4761.210938 4015.195312 3995.585938 C 5288.632812 3443.515625 6567.148438 2901.289062 7918.242188 2686.09375 C 9823.828125 2381.71875 11830.898438 2730.390625 13726.09375 2567.695312 C 14423.515625 2507.8125 15102.695312 2378.085938 15752.695312 2114.414062 C 17545.117188 1385 18526.40625 -362.617188 20365.117188 -889.101562 C 20645.703125 -969.296875 20929.21875 -1038.007812 21214.882812 -1097.304688 C 22953.203125 -1458.007812 24778.789062 -1468.203125 26559.414062 -1503.59375 C 27250.898438 -1517.304688 27941.914062 -1535 28631.796875 -1556.914062 " transform="matrix(0.1, 0, 0, -0.1, 0, 1518.75)"/>
</g>
<g clip-path="url(#clip-9)">
<path fill="none" stroke-width="3.19602" stroke-linecap="round" stroke-linejoin="round" stroke="rgb(10.545349%, 9.913635%, 9.561157%)" stroke-opacity="0.5" stroke-dasharray="0 168.75" stroke-miterlimit="10" d="M -1394.570312 5544.609375 C 512.226562 5528.242188 2269.765625 4728.007812 4038.046875 3951.289062 C 5312.773438 3391.484375 6595.546875 2851.71875 7954.453125 2654.101562 C 9869.6875 2375.195312 11891.40625 2779.6875 13787.695312 2613.203125 C 14486.210938 2551.796875 15166.210938 2412.695312 15815.78125 2130 C 17609.101562 1348.398438 18553.007812 -523.007812 20395.507812 -1100.507812 C 20676.484375 -1188.515625 20960.390625 -1264.21875 21246.71875 -1329.609375 C 22988.085938 -1727.304688 24818.007812 -1741.914062 26602.382812 -1767.890625 C 27295.703125 -1777.890625 27988.710938 -1790 28681.09375 -1804.21875 " transform="matrix(0.1, 0, 0, -0.1, 0, 1518.75)"/>
</g>
</svg>
