<svg xmlns="http://www.w3.org/2000/svg" viewBox="100 140 200 120" fill="currentColor">
  <path d="M133.391 156.748 L 148.267 171.627 125.143 194.753 L 102.019 217.879 118.713 218.109 C 127.895 218.236,144.998 218.339,156.718 218.339 L 178.029 218.339 216.263 180.104 L 254.497 141.869 186.506 141.869 L 118.515 141.869 133.391 156.748 M182.234 218.285 L 144.227 256.293 147.633 256.518 C 151.991 256.807,179.381 256.806,235.235 256.517 L 279.640 256.287 265.080 241.723 C 257.071 233.713,250.519 227.005,250.519 226.816 C 250.519 226.627,260.912 216.078,273.615 203.375 L 296.711 180.277 258.476 180.277 L 220.241 180.277 182.234 218.285" />
</svg>